<svg width="100%" height="100%" viewBox="-1 -1 23 23" xmlns="http://www.w3.org/2000/svg" xmlns:xlink="http://www.w3.org/1999/xlink" shape-rendering="geometricPrecision" id="qr code"><rect id="qr background" fill-opacity="1" fill="rgb(0, 0, 0)" x="-1" y="-1" width="23" height="23" ry="1.3499999999999999"></rect><path fill-opacity="1" fill="rgb(255, 160, 0)" id="qr dark pixels" fill-rule="evenodd" d="M 10 0.2a 0.2,0.2 0 0 1 0.2,-0.2L 10.8 0a 0.2,0.2 0 0 1 0.2,0.2L 11 0.8a 0.2,0.2 0 0 1 -0.2,0.2L 10.2 1a 0.2,0.2 0 0 1 -0.2,-0.2z M 12 0.2a 0.2,0.2 0 0 1 0.2,-0.2L 12.8 0a 0.2,0.2 0 0 1 0.2,0.2L 13 1.8a 0.2,0.2 0 0 1 -0.2,0.2L 12.2 2a 0.2,0.2 0 0 1 -0.2,-0.2z M 8 2.2a 0.2,0.2 0 0 1 0.2,-0.2L 8.8 2a 0.2,0.2 0 0 1 0.2,0.2L 9 2.8a 0.2,0.2 0 0 1 -0.2,0.2L 8.2 3a 0.2,0.2 0 0 1 -0.2,-0.2z M 10 2.2a 0.2,0.2 0 0 1 0.2,-0.2L 10.8 2a 0.2,0.2 0 0 1 0.2,0.2L 11 2.8a 0.2,0.2 0 0 1 -0.2,0.2L 10.2 3a 0.2,0.2 0 0 1 -0.2,-0.2z M 12 3.2a 0.2,0.2 0 0 1 0.2,-0.2L 12.8 3a 0.2,0.2 0 0 1 0.2,0.2L 13 4.8a 0.2,0.2 0 0 1 -0.2,0.2L 12.2 5a 0.2,0.2 0 0 0 -0.2,0.2L 12 5.8a 0.2,0.2 0 0 1 -0.2,0.2L 11.2 6a 0.2,0.2 0 0 0 -0.2,0.2L 11 8.8a 0.2,0.2 0 0 0 0.2,0.2L 11.8 9a 0.2,0.2 0 0 1 0.2,0.2L 12 10.8a 0.2,0.2 0 0 0 0.2,0.2L 12.8 11a 0.2,0.2 0 0 0 0.2,-0.2L 13 9.2a 0.2,0.2 0 0 0 -0.2,-0.2L 12.2 9a 0.2,0.2 0 0 1 -0.2,-0.2L 12 8.2a 0.2,0.2 0 0 1 0.2,-0.2L 14.8 8a 0.2,0.2 0 0 1 0.2,0.2L 15 8.8a 0.2,0.2 0 0 1 -0.2,0.2L 14.2 9a 0.2,0.2 0 0 0 -0.2,0.2L 14 9.8a 0.2,0.2 0 0 0 0.2,0.2L 14.8 10a 0.2,0.2 0 0 0 0.2,-0.2L 15 9.2a 0.2,0.2 0 0 1 0.2,-0.2L 15.8 9a 0.2,0.2 0 0 1 0.2,0.2L 16 10.8a 0.2,0.2 0 0 0 0.2,0.2L 16.8 11a 0.2,0.2 0 0 0 0.2,-0.2L 17 9.2a 0.2,0.2 0 0 1 0.2,-0.2L 17.8 9a 0.2,0.2 0 0 1 0.2,0.2L 18 9.8a 0.2,0.2 0 0 0 0.2,0.2L 18.8 10a 0.2,0.2 0 0 0 0.2,-0.2L 19 9.2a 0.2,0.2 0 0 1 0.2,-0.2L 19.8 9a 0.2,0.2 0 0 1 0.2,0.2L 20 10.8a 0.2,0.2 0 0 0 0.2,0.2L 20.8 11a 0.2,0.2 0 0 1 0.2,0.2L 21 11.8a 0.2,0.2 0 0 1 -0.2,0.2L 20.2 12a 0.2,0.2 0 0 0 -0.2,0.2L 20 13.8a 0.2,0.2 0 0 1 -0.2,0.2L 18.2 14a 0.2,0.2 0 0 1 -0.2,-0.2L 18 13.2a 0.2,0.2 0 0 0 -0.2,-0.2L 17.2 13a 0.2,0.2 0 0 1 -0.2,-0.2L 17 12.2a 0.2,0.2 0 0 0 -0.2,-0.2L 16.2 12a 0.2,0.2 0 0 0 -0.2,0.2L 16 12.8a 0.2,0.2 0 0 1 -0.2,0.2L 15.2 13a 0.2,0.2 0 0 0 -0.2,0.2L 15 13.8a 0.2,0.2 0 0 1 -0.2,0.2L 14.2 14a 0.2,0.2 0 0 1 -0.2,-0.2L 14 13.2a 0.2,0.2 0 0 0 -0.2,-0.2L 13.2 13a 0.2,0.2 0 0 1 -0.2,-0.2L 13 12.2a 0.2,0.2 0 0 0 -0.2,-0.2L 12.2 12a 0.2,0.2 0 0 0 -0.2,0.2L 12 12.8a 0.2,0.2 0 0 1 -0.2,0.2L 11.2 13a 0.2,0.2 0 0 0 -0.2,0.2L 11 13.8a 0.2,0.2 0 0 1 -0.2,0.2L 9.2 14a 0.2,0.2 0 0 0 -0.2,0.2L 9 14.8a 0.2,0.2 0 0 0 0.2,0.2L 10.8 15a 0.2,0.2 0 0 1 0.2,0.2L 11 15.8a 0.2,0.2 0 0 1 -0.2,0.2L 9.2 16a 0.2,0.2 0 0 0 -0.2,0.2L 9 16.8a 0.2,0.2 0 0 1 -0.2,0.2L 8.2 17a 0.2,0.2 0 0 1 -0.2,-0.2L 8 13.2a 0.2,0.2 0 0 1 0.2,-0.2L 8.8 13a 0.2,0.2 0 0 0 0.2,-0.2L 9 10.2a 0.2,0.2 0 0 1 0.2,-0.2L 9.8 10a 0.2,0.2 0 0 1 0.2,0.2L 10 10.8a 0.2,0.2 0 0 0 0.2,0.2L 10.8 11a 0.2,0.2 0 0 0 0.2,-0.2L 11 10.2a 0.2,0.2 0 0 0 -0.2,-0.2L 10.2 10a 0.2,0.2 0 0 1 -0.2,-0.2L 10 6.2a 0.2,0.2 0 0 0 -0.2,-0.2L 9.2 6a 0.2,0.2 0 0 1 -0.2,-0.2L 9 4.2a 0.2,0.2 0 0 1 0.2,-0.2L 9.8 4a 0.2,0.2 0 0 1 0.2,0.2L 10 4.8a 0.2,0.2 0 0 0 0.2,0.2L 10.8 5a 0.2,0.2 0 0 0 0.2,-0.2L 11 4.2a 0.2,0.2 0 0 1 0.2,-0.2L 11.8 4a 0.2,0.2 0 0 0 0.2,-0.2zM 14 11.2a 0.2,0.2 0 0 1 0.2,-0.2L 14.8 11a 0.2,0.2 0 0 1 0.2,0.2L 15 11.8a 0.2,0.2 0 0 1 -0.2,0.2L 14.2 12a 0.2,0.2 0 0 1 -0.2,-0.2z M 18 11.2a 0.2,0.2 0 0 1 0.2,-0.2L 18.8 11a 0.2,0.2 0 0 1 0.2,0.2L 19 11.8a 0.2,0.2 0 0 1 -0.2,0.2L 18.2 12a 0.2,0.2 0 0 1 -0.2,-0.2z M 8 6.2a 0.2,0.2 0 0 1 0.2,-0.2L 8.8 6a 0.2,0.2 0 0 1 0.2,0.2L 9 9.8a 0.2,0.2 0 0 1 -0.2,0.2L 8.2 10a 0.2,0.2 0 0 1 -0.2,-0.2L 8 9.2a 0.2,0.2 0 0 0 -0.2,-0.2L 6.2 9a 0.2,0.2 0 0 0 -0.2,0.2L 6 9.8a 0.2,0.2 0 0 1 -0.2,0.2L 5.2 10a 0.2,0.2 0 0 1 -0.2,-0.2L 5 9.2a 0.2,0.2 0 0 0 -0.2,-0.2L 4.2 9a 0.2,0.2 0 0 1 -0.2,-0.2L 4 8.2a 0.2,0.2 0 0 1 0.2,-0.2L 7.8 8a 0.2,0.2 0 0 0 0.2,-0.2z M 12 6.2a 0.2,0.2 0 0 1 0.2,-0.2L 12.8 6a 0.2,0.2 0 0 1 0.2,0.2L 13 6.8a 0.2,0.2 0 0 1 -0.2,0.2L 12.2 7a 0.2,0.2 0 0 1 -0.2,-0.2z M 0 8.2a 0.2,0.2 0 0 1 0.2,-0.2L 2.8 8a 0.2,0.2 0 0 1 0.2,0.2L 3 10.8a 0.2,0.2 0 0 1 -0.2,0.2L 2.2 11a 0.2,0.2 0 0 1 -0.2,-0.2L 2 9.2a 0.2,0.2 0 0 0 -0.2,-0.2L 1.2 9a 0.2,0.2 0 0 0 -0.2,0.2L 1 9.8a 0.2,0.2 0 0 1 -0.2,0.2L 0.2 10a 0.2,0.2 0 0 1 -0.2,-0.2z M 18 8.2a 0.2,0.2 0 0 1 0.2,-0.2L 18.8 8a 0.2,0.2 0 0 1 0.2,0.2L 19 8.8a 0.2,0.2 0 0 1 -0.2,0.2L 18.2 9a 0.2,0.2 0 0 1 -0.2,-0.2z M 4 10.2a 0.2,0.2 0 0 1 0.2,-0.2L 4.8 10a 0.2,0.2 0 0 1 0.2,0.2L 5 10.8a 0.2,0.2 0 0 0 0.2,0.2L 5.8 11a 0.2,0.2 0 0 1 0.2,0.2L 6 11.8a 0.2,0.2 0 0 0 0.2,0.2L 6.8 12a 0.2,0.2 0 0 0 0.2,-0.2L 7 11.2a 0.2,0.2 0 0 1 0.2,-0.2L 7.8 11a 0.2,0.2 0 0 1 0.2,0.2L 8 12.8a 0.2,0.2 0 0 1 -0.2,0.2L 3.2 13a 0.2,0.2 0 0 1 -0.2,-0.2L 3 12.2a 0.2,0.2 0 0 1 0.2,-0.2L 3.8 12a 0.2,0.2 0 0 0 0.2,-0.2z M 6 10.2a 0.2,0.2 0 0 1 0.2,-0.2L 6.8 10a 0.2,0.2 0 0 1 0.2,0.2L 7 10.8a 0.2,0.2 0 0 1 -0.2,0.2L 6.2 11a 0.2,0.2 0 0 1 -0.2,-0.2z M 1 11.2a 0.2,0.2 0 0 1 0.2,-0.2L 1.8 11a 0.2,0.2 0 0 1 0.2,0.2L 2 12.8a 0.2,0.2 0 0 1 -0.2,0.2L 0.2 13a 0.2,0.2 0 0 1 -0.2,-0.2L 0 12.2a 0.2,0.2 0 0 1 0.2,-0.2L 0.8 12a 0.2,0.2 0 0 0 0.2,-0.2z M 12 14.2a 0.2,0.2 0 0 1 0.2,-0.2L 12.8 14a 0.2,0.2 0 0 1 0.2,0.2L 13 14.8a 0.2,0.2 0 0 1 -0.2,0.2L 12.2 15a 0.2,0.2 0 0 1 -0.2,-0.2z M 16 14.2a 0.2,0.2 0 0 1 0.2,-0.2L 16.8 14a 0.2,0.2 0 0 1 0.2,0.2L 17 14.8a 0.2,0.2 0 0 1 -0.2,0.2L 16.2 15a 0.2,0.2 0 0 1 -0.2,-0.2z M 20 14.2a 0.2,0.2 0 0 1 0.2,-0.2L 20.8 14a 0.2,0.2 0 0 1 0.2,0.2L 21 14.8a 0.2,0.2 0 0 1 -0.2,0.2L 20.2 15a 0.2,0.2 0 0 1 -0.2,-0.2z M 14 15.2a 0.2,0.2 0 0 1 0.2,-0.2L 14.8 15a 0.2,0.2 0 0 1 0.2,0.2L 15 16.8a 0.2,0.2 0 0 1 -0.2,0.2L 14.2 17a 0.2,0.2 0 0 1 -0.2,-0.2z M 18 15.2a 0.2,0.2 0 0 1 0.2,-0.2L 19.8 15a 0.2,0.2 0 0 1 0.2,0.2L 20 15.8a 0.2,0.2 0 0 1 -0.2,0.2L 19.2 16a 0.2,0.2 0 0 0 -0.2,0.2L 19 16.8a 0.2,0.2 0 0 1 -0.2,0.2L 18.2 17a 0.2,0.2 0 0 1 -0.2,-0.2z M 12 16.2a 0.2,0.2 0 0 1 0.2,-0.2L 12.8 16a 0.2,0.2 0 0 1 0.2,0.2L 13 16.8a 0.2,0.2 0 0 1 -0.2,0.2L 12.2 17a 0.2,0.2 0 0 1 -0.2,-0.2z M 16 16.2a 0.2,0.2 0 0 1 0.2,-0.2L 16.8 16a 0.2,0.2 0 0 1 0.2,0.2L 17 16.8a 0.2,0.2 0 0 1 -0.2,0.2L 16.2 17a 0.2,0.2 0 0 1 -0.2,-0.2z M 20 16.2a 0.2,0.2 0 0 1 0.2,-0.2L 20.8 16a 0.2,0.2 0 0 1 0.2,0.2L 21 16.8a 0.2,0.2 0 0 1 -0.2,0.2L 20.2 17a 0.2,0.2 0 0 1 -0.2,-0.2z M 9 17.2a 0.2,0.2 0 0 1 0.2,-0.2L 9.8 17a 0.2,0.2 0 0 1 0.2,0.2L 10 17.8a 0.2,0.2 0 0 1 -0.2,0.2L 9.2 18a 0.2,0.2 0 0 1 -0.2,-0.2z M 11 17.2a 0.2,0.2 0 0 1 0.2,-0.2L 11.8 17a 0.2,0.2 0 0 1 0.2,0.2L 12 18.8a 0.2,0.2 0 0 0 0.2,0.2L 12.8 19a 0.2,0.2 0 0 0 0.2,-0.2L 13 17.2a 0.2,0.2 0 0 1 0.2,-0.2L 13.8 17a 0.2,0.2 0 0 1 0.2,0.2L 14 17.8a 0.2,0.2 0 0 0 0.2,0.2L 14.8 18a 0.2,0.2 0 0 0 0.2,-0.2L 15 17.2a 0.2,0.2 0 0 1 0.2,-0.2L 15.8 17a 0.2,0.2 0 0 1 0.2,0.2L 16 18.8a 0.2,0.2 0 0 0 0.2,0.2L 16.8 19a 0.2,0.2 0 0 0 0.2,-0.2L 17 17.2a 0.2,0.2 0 0 1 0.2,-0.2L 17.8 17a 0.2,0.2 0 0 1 0.2,0.2L 18 17.8a 0.2,0.2 0 0 0 0.2,0.2L 18.8 18a 0.2,0.2 0 0 1 0.2,0.2L 19 18.8a 0.2,0.2 0 0 1 -0.2,0.2L 18.2 19a 0.2,0.2 0 0 0 -0.2,0.2L 18 19.8a 0.2,0.2 0 0 0 0.2,0.2L 18.8 20a 0.2,0.2 0 0 0 0.2,-0.2L 19 19.2a 0.2,0.2 0 0 1 0.2,-0.2L 19.8 19a 0.2,0.2 0 0 1 0.2,0.2L 20 19.8a 0.2,0.2 0 0 0 0.2,0.2L 20.8 20a 0.2,0.2 0 0 1 0.2,0.2L 21 20.8a 0.2,0.2 0 0 1 -0.2,0.2L 17.2 21a 0.2,0.2 0 0 1 -0.2,-0.2L 17 20.2a 0.2,0.2 0 0 0 -0.2,-0.2L 16.2 20a 0.2,0.2 0 0 0 -0.2,0.2L 16 20.8a 0.2,0.2 0 0 1 -0.2,0.2L 13.2 21a 0.2,0.2 0 0 1 -0.2,-0.2L 13 20.2a 0.2,0.2 0 0 0 -0.2,-0.2L 12.2 20a 0.2,0.2 0 0 0 -0.2,0.2L 12 20.8a 0.2,0.2 0 0 1 -0.2,0.2L 11.2 21a 0.2,0.2 0 0 1 -0.2,-0.2L 11 19.2a 0.2,0.2 0 0 0 -0.2,-0.2L 10.2 19a 0.2,0.2 0 0 1 -0.2,-0.2L 10 18.2a 0.2,0.2 0 0 1 0.2,-0.2L 10.8 18a 0.2,0.2 0 0 0 0.2,-0.2zM 14 19.2a 0.2,0.2 0 0 1 0.2,-0.2L 14.8 19a 0.2,0.2 0 0 1 0.2,0.2L 15 19.8a 0.2,0.2 0 0 1 -0.2,0.2L 14.2 20a 0.2,0.2 0 0 1 -0.2,-0.2z M 19 17.2a 0.2,0.2 0 0 1 0.2,-0.2L 19.8 17a 0.2,0.2 0 0 1 0.2,0.2L 20 17.8a 0.2,0.2 0 0 1 -0.2,0.2L 19.2 18a 0.2,0.2 0 0 1 -0.2,-0.2z M 8 18.2a 0.2,0.2 0 0 1 0.2,-0.2L 8.8 18a 0.2,0.2 0 0 1 0.2,0.2L 9 18.8a 0.2,0.2 0 0 0 0.2,0.2L 9.8 19a 0.2,0.2 0 0 1 0.2,0.2L 10 20.8a 0.2,0.2 0 0 1 -0.2,0.2L 8.2 21a 0.2,0.2 0 0 1 -0.2,-0.2z M 20 18.2a 0.2,0.2 0 0 1 0.2,-0.2L 20.8 18a 0.2,0.2 0 0 1 0.2,0.2L 21 18.8a 0.2,0.2 0 0 1 -0.2,0.2L 20.2 19a 0.2,0.2 0 0 1 -0.2,-0.2z"></path><path id="qr squares" d="M1.05,0h4.9a1.05,1.05 0 0 1 1.05,1.05v4.9a1.05,1.05 0 0 1 -1.05,1.05h-4.9a1.05,1.05 0 0 1 -1.05,-1.05v-4.9a1.05,1.05 0 0 1 1.05,-1.05zM1.75,1h3.5a0.75,0.75 0 0 1 0.75,0.75v3.5a0.75,0.75 0 0 1 -0.75,0.75h-3.5a0.75,0.75 0 0 1 -0.75,-0.75v-3.5a0.75,0.75 0 0 1 0.75,-0.75zM3.5,2h0a1.5,1.5 0 0 1 1.5,1.5v0a1.5,1.5 0 0 1 -1.5,1.5h0a1.5,1.5 0 0 1 -1.5,-1.5v0a1.5,1.5 0 0 1 1.5,-1.5z M15.05,0h4.9a1.05,1.05 0 0 1 1.05,1.05v4.9a1.05,1.05 0 0 1 -1.05,1.05h-4.9a1.05,1.05 0 0 1 -1.05,-1.05v-4.9a1.05,1.05 0 0 1 1.05,-1.05zM15.75,1h3.5a0.75,0.75 0 0 1 0.75,0.75v3.5a0.75,0.75 0 0 1 -0.75,0.75h-3.5a0.75,0.75 0 0 1 -0.75,-0.75v-3.5a0.75,0.75 0 0 1 0.75,-0.75zM17.5,2h0a1.5,1.5 0 0 1 1.5,1.5v0a1.5,1.5 0 0 1 -1.5,1.5h0a1.5,1.5 0 0 1 -1.5,-1.5v0a1.5,1.5 0 0 1 1.5,-1.5z M1.05,14h4.9a1.05,1.05 0 0 1 1.05,1.05v4.9a1.05,1.05 0 0 1 -1.05,1.05h-4.9a1.05,1.05 0 0 1 -1.05,-1.05v-4.9a1.05,1.05 0 0 1 1.05,-1.05zM1.75,15h3.5a0.75,0.75 0 0 1 0.75,0.75v3.5a0.75,0.75 0 0 1 -0.75,0.75h-3.5a0.75,0.75 0 0 1 -0.75,-0.75v-3.5a0.75,0.75 0 0 1 0.75,-0.75zM3.5,16h0a1.5,1.5 0 0 1 1.5,1.5v0a1.5,1.5 0 0 1 -1.5,1.5h0a1.5,1.5 0 0 1 -1.5,-1.5v0a1.5,1.5 0 0 1 1.5,-1.5z" fill-rule="evenodd" fill-opacity="1" fill="rgb(255, 205, 78)"></path></svg>