<svg width="100%" height="100%" viewBox="-1 -1 23 23" xmlns="http://www.w3.org/2000/svg" xmlns:xlink="http://www.w3.org/1999/xlink" shape-rendering="geometricPrecision" id="qr code"><rect id="qr background" fill-opacity="1" fill="rgb(255, 255, 255)" x="-1" y="-1" width="23" height="23" ry="1.3499999999999999"></rect><path fill-opacity="1" fill="rgb(123, 31, 162)" id="qr dark pixels" fill-rule="evenodd" d="M 10 0.4a 0.4,0.4 0 0 1 0.4,-0.4L 10.6 0a 0.4,0.4 0 0 1 0.4,0.4L 11 0.6a 0.4,0.4 0 0 1 -0.4,0.4L 10.4 1a 0.4,0.4 0 0 1 -0.4,-0.4z M 12 0.4a 0.4,0.4 0 0 1 0.4,-0.4L 12.6 0a 0.4,0.4 0 0 1 0.4,0.4L 13 1.6a 0.4,0.4 0 0 1 -0.4,0.4L 12.4 2a 0.4,0.4 0 0 1 -0.4,-0.4z M 8 2.4a 0.4,0.4 0 0 1 0.4,-0.4L 8.6 2a 0.4,0.4 0 0 1 0.4,0.4L 9 2.6a 0.4,0.4 0 0 1 -0.4,0.4L 8.4 3a 0.4,0.4 0 0 1 -0.4,-0.4z M 10 2.4a 0.4,0.4 0 0 1 0.4,-0.4L 10.6 2a 0.4,0.4 0 0 1 0.4,0.4L 11 2.6a 0.4,0.4 0 0 1 -0.4,0.4L 10.4 3a 0.4,0.4 0 0 1 -0.4,-0.4z M 12 3.4a 0.4,0.4 0 0 1 0.4,-0.4L 12.6 3a 0.4,0.4 0 0 1 0.4,0.4L 13 4.6a 0.4,0.4 0 0 1 -0.4,0.4L 12.4 5a 0.4,0.4 0 0 0 -0.4,0.4L 12 5.6a 0.4,0.4 0 0 1 -0.4,0.4L 11.4 6a 0.4,0.4 0 0 0 -0.4,0.4L 11 8.6a 0.4,0.4 0 0 0 0.4,0.4L 11.6 9a 0.4,0.4 0 0 1 0.4,0.4L 12 10.6a 0.4,0.4 0 0 0 0.4,0.4L 12.6 11a 0.4,0.4 0 0 0 0.4,-0.4L 13 9.4a 0.4,0.4 0 0 0 -0.4,-0.4L 12.4 9a 0.4,0.4 0 0 1 -0.4,-0.4L 12 8.4a 0.4,0.4 0 0 1 0.4,-0.4L 14.6 8a 0.4,0.4 0 0 1 0.4,0.4L 15 8.6a 0.4,0.4 0 0 1 -0.4,0.4L 14.4 9a 0.4,0.4 0 0 0 -0.4,0.4L 14 9.6a 0.4,0.4 0 0 0 0.4,0.4L 14.6 10a 0.4,0.4 0 0 0 0.4,-0.4L 15 9.4a 0.4,0.4 0 0 1 0.4,-0.4L 15.6 9a 0.4,0.4 0 0 1 0.4,0.4L 16 10.6a 0.4,0.4 0 0 0 0.4,0.4L 16.6 11a 0.4,0.4 0 0 0 0.4,-0.4L 17 9.4a 0.4,0.4 0 0 1 0.4,-0.4L 17.6 9a 0.4,0.4 0 0 1 0.4,0.4L 18 9.6a 0.4,0.4 0 0 0 0.4,0.4L 18.6 10a 0.4,0.4 0 0 0 0.4,-0.4L 19 9.4a 0.4,0.4 0 0 1 0.4,-0.4L 19.6 9a 0.4,0.4 0 0 1 0.4,0.4L 20 10.6a 0.4,0.4 0 0 0 0.4,0.4L 20.6 11a 0.4,0.4 0 0 1 0.4,0.4L 21 11.6a 0.4,0.4 0 0 1 -0.4,0.4L 20.4 12a 0.4,0.4 0 0 0 -0.4,0.4L 20 13.6a 0.4,0.4 0 0 1 -0.4,0.4L 18.4 14a 0.4,0.4 0 0 1 -0.4,-0.4L 18 13.4a 0.4,0.4 0 0 0 -0.4,-0.4L 17.4 13a 0.4,0.4 0 0 1 -0.4,-0.4L 17 12.4a 0.4,0.4 0 0 0 -0.4,-0.4L 16.4 12a 0.4,0.4 0 0 0 -0.4,0.4L 16 12.6a 0.4,0.4 0 0 1 -0.4,0.4L 15.4 13a 0.4,0.4 0 0 0 -0.4,0.4L 15 13.6a 0.4,0.4 0 0 1 -0.4,0.4L 14.4 14a 0.4,0.4 0 0 1 -0.4,-0.4L 14 13.4a 0.4,0.4 0 0 0 -0.4,-0.4L 13.4 13a 0.4,0.4 0 0 1 -0.4,-0.4L 13 12.4a 0.4,0.4 0 0 0 -0.4,-0.4L 12.4 12a 0.4,0.4 0 0 0 -0.4,0.4L 12 12.6a 0.4,0.4 0 0 1 -0.4,0.4L 11.4 13a 0.4,0.4 0 0 0 -0.4,0.4L 11 13.6a 0.4,0.4 0 0 1 -0.4,0.4L 9.4 14a 0.4,0.4 0 0 0 -0.4,0.4L 9 14.6a 0.4,0.4 0 0 0 0.4,0.4L 10.6 15a 0.4,0.4 0 0 1 0.4,0.4L 11 15.6a 0.4,0.4 0 0 1 -0.4,0.4L 9.4 16a 0.4,0.4 0 0 0 -0.4,0.4L 9 16.6a 0.4,0.4 0 0 1 -0.4,0.4L 8.4 17a 0.4,0.4 0 0 1 -0.4,-0.4L 8 13.4a 0.4,0.4 0 0 1 0.4,-0.4L 8.6 13a 0.4,0.4 0 0 0 0.4,-0.4L 9 10.4a 0.4,0.4 0 0 1 0.4,-0.4L 9.6 10a 0.4,0.4 0 0 1 0.4,0.4L 10 10.6a 0.4,0.4 0 0 0 0.4,0.4L 10.6 11a 0.4,0.4 0 0 0 0.4,-0.4L 11 10.4a 0.4,0.4 0 0 0 -0.4,-0.4L 10.4 10a 0.4,0.4 0 0 1 -0.4,-0.4L 10 6.4a 0.4,0.4 0 0 0 -0.4,-0.4L 9.4 6a 0.4,0.4 0 0 1 -0.4,-0.4L 9 4.4a 0.4,0.4 0 0 1 0.4,-0.4L 9.6 4a 0.4,0.4 0 0 1 0.4,0.4L 10 4.6a 0.4,0.4 0 0 0 0.4,0.4L 10.6 5a 0.4,0.4 0 0 0 0.4,-0.4L 11 4.4a 0.4,0.4 0 0 1 0.4,-0.4L 11.6 4a 0.4,0.4 0 0 0 0.4,-0.4zM 14 11.4a 0.4,0.4 0 0 1 0.4,-0.4L 14.6 11a 0.4,0.4 0 0 1 0.4,0.4L 15 11.6a 0.4,0.4 0 0 1 -0.4,0.4L 14.4 12a 0.4,0.4 0 0 1 -0.4,-0.4z M 18 11.4a 0.4,0.4 0 0 1 0.4,-0.4L 18.6 11a 0.4,0.4 0 0 1 0.4,0.4L 19 11.6a 0.4,0.4 0 0 1 -0.4,0.4L 18.4 12a 0.4,0.4 0 0 1 -0.4,-0.4z M 8 6.4a 0.4,0.4 0 0 1 0.4,-0.4L 8.6 6a 0.4,0.4 0 0 1 0.4,0.4L 9 9.6a 0.4,0.4 0 0 1 -0.4,0.4L 8.4 10a 0.4,0.4 0 0 1 -0.4,-0.4L 8 9.4a 0.4,0.4 0 0 0 -0.4,-0.4L 6.4 9a 0.4,0.4 0 0 0 -0.4,0.4L 6 9.6a 0.4,0.4 0 0 1 -0.4,0.4L 5.4 10a 0.4,0.4 0 0 1 -0.4,-0.4L 5 9.4a 0.4,0.4 0 0 0 -0.4,-0.4L 4.4 9a 0.4,0.4 0 0 1 -0.4,-0.4L 4 8.4a 0.4,0.4 0 0 1 0.4,-0.4L 7.6 8a 0.4,0.4 0 0 0 0.4,-0.4z M 12 6.4a 0.4,0.4 0 0 1 0.4,-0.4L 12.6 6a 0.4,0.4 0 0 1 0.4,0.4L 13 6.6a 0.4,0.4 0 0 1 -0.4,0.4L 12.4 7a 0.4,0.4 0 0 1 -0.4,-0.4z M 0 8.4a 0.4,0.4 0 0 1 0.4,-0.4L 2.6 8a 0.4,0.4 0 0 1 0.4,0.4L 3 10.6a 0.4,0.4 0 0 1 -0.4,0.4L 2.4 11a 0.4,0.4 0 0 1 -0.4,-0.4L 2 9.4a 0.4,0.4 0 0 0 -0.4,-0.4L 1.4 9a 0.4,0.4 0 0 0 -0.4,0.4L 1 9.6a 0.4,0.4 0 0 1 -0.4,0.4L 0.4 10a 0.4,0.4 0 0 1 -0.4,-0.4z M 18 8.4a 0.4,0.4 0 0 1 0.4,-0.4L 18.6 8a 0.4,0.4 0 0 1 0.4,0.4L 19 8.6a 0.4,0.4 0 0 1 -0.4,0.4L 18.4 9a 0.4,0.4 0 0 1 -0.4,-0.4z M 4 10.4a 0.4,0.4 0 0 1 0.4,-0.4L 4.6 10a 0.4,0.4 0 0 1 0.4,0.4L 5 10.6a 0.4,0.4 0 0 0 0.4,0.4L 5.6 11a 0.4,0.4 0 0 1 0.4,0.4L 6 11.6a 0.4,0.4 0 0 0 0.4,0.4L 6.6 12a 0.4,0.4 0 0 0 0.4,-0.4L 7 11.4a 0.4,0.4 0 0 1 0.4,-0.4L 7.6 11a 0.4,0.4 0 0 1 0.4,0.4L 8 12.6a 0.4,0.4 0 0 1 -0.4,0.4L 3.4 13a 0.4,0.4 0 0 1 -0.4,-0.4L 3 12.4a 0.4,0.4 0 0 1 0.4,-0.4L 3.6 12a 0.4,0.4 0 0 0 0.4,-0.4z M 6 10.4a 0.4,0.4 0 0 1 0.4,-0.4L 6.6 10a 0.4,0.4 0 0 1 0.4,0.4L 7 10.6a 0.4,0.4 0 0 1 -0.4,0.4L 6.4 11a 0.4,0.4 0 0 1 -0.4,-0.4z M 1 11.4a 0.4,0.4 0 0 1 0.4,-0.4L 1.6 11a 0.4,0.4 0 0 1 0.4,0.4L 2 12.6a 0.4,0.4 0 0 1 -0.4,0.4L 0.4 13a 0.4,0.4 0 0 1 -0.4,-0.4L 0 12.4a 0.4,0.4 0 0 1 0.4,-0.4L 0.6 12a 0.4,0.4 0 0 0 0.4,-0.4z M 12 14.4a 0.4,0.4 0 0 1 0.4,-0.4L 12.6 14a 0.4,0.4 0 0 1 0.4,0.4L 13 14.6a 0.4,0.4 0 0 1 -0.4,0.4L 12.4 15a 0.4,0.4 0 0 1 -0.4,-0.4z M 16 14.4a 0.4,0.4 0 0 1 0.4,-0.4L 16.6 14a 0.4,0.4 0 0 1 0.4,0.4L 17 14.6a 0.4,0.4 0 0 1 -0.4,0.4L 16.4 15a 0.4,0.4 0 0 1 -0.4,-0.4z M 20 14.4a 0.4,0.4 0 0 1 0.4,-0.4L 20.6 14a 0.4,0.4 0 0 1 0.4,0.4L 21 14.6a 0.4,0.4 0 0 1 -0.4,0.4L 20.4 15a 0.4,0.4 0 0 1 -0.4,-0.4z M 14 15.4a 0.4,0.4 0 0 1 0.4,-0.4L 14.6 15a 0.4,0.4 0 0 1 0.4,0.4L 15 16.6a 0.4,0.4 0 0 1 -0.4,0.4L 14.4 17a 0.4,0.4 0 0 1 -0.4,-0.4z M 18 15.4a 0.4,0.4 0 0 1 0.4,-0.4L 19.6 15a 0.4,0.4 0 0 1 0.4,0.4L 20 15.6a 0.4,0.4 0 0 1 -0.4,0.4L 19.4 16a 0.4,0.4 0 0 0 -0.4,0.4L 19 16.6a 0.4,0.4 0 0 1 -0.4,0.4L 18.4 17a 0.4,0.4 0 0 1 -0.4,-0.4z M 12 16.4a 0.4,0.4 0 0 1 0.4,-0.4L 12.6 16a 0.4,0.4 0 0 1 0.4,0.4L 13 16.6a 0.4,0.4 0 0 1 -0.4,0.4L 12.4 17a 0.4,0.4 0 0 1 -0.4,-0.4z M 16 16.4a 0.4,0.4 0 0 1 0.4,-0.4L 16.6 16a 0.4,0.4 0 0 1 0.4,0.4L 17 16.6a 0.4,0.4 0 0 1 -0.4,0.4L 16.4 17a 0.4,0.4 0 0 1 -0.4,-0.4z M 20 16.4a 0.4,0.4 0 0 1 0.4,-0.4L 20.6 16a 0.4,0.4 0 0 1 0.4,0.4L 21 16.6a 0.4,0.4 0 0 1 -0.4,0.4L 20.4 17a 0.4,0.4 0 0 1 -0.4,-0.4z M 9 17.4a 0.4,0.4 0 0 1 0.4,-0.4L 9.6 17a 0.4,0.4 0 0 1 0.4,0.4L 10 17.6a 0.4,0.4 0 0 1 -0.4,0.4L 9.4 18a 0.4,0.4 0 0 1 -0.4,-0.4z M 11 17.4a 0.4,0.4 0 0 1 0.4,-0.4L 11.6 17a 0.4,0.4 0 0 1 0.4,0.4L 12 18.6a 0.4,0.4 0 0 0 0.4,0.4L 12.6 19a 0.4,0.4 0 0 0 0.4,-0.4L 13 17.4a 0.4,0.4 0 0 1 0.4,-0.4L 13.6 17a 0.4,0.4 0 0 1 0.4,0.4L 14 17.6a 0.4,0.4 0 0 0 0.4,0.4L 14.6 18a 0.4,0.4 0 0 0 0.4,-0.4L 15 17.4a 0.4,0.4 0 0 1 0.4,-0.4L 15.6 17a 0.4,0.4 0 0 1 0.4,0.4L 16 18.6a 0.4,0.4 0 0 0 0.4,0.4L 16.6 19a 0.4,0.4 0 0 0 0.4,-0.4L 17 17.4a 0.4,0.4 0 0 1 0.4,-0.4L 17.6 17a 0.4,0.4 0 0 1 0.4,0.4L 18 17.6a 0.4,0.4 0 0 0 0.4,0.4L 18.6 18a 0.4,0.4 0 0 1 0.4,0.4L 19 18.6a 0.4,0.4 0 0 1 -0.4,0.4L 18.4 19a 0.4,0.4 0 0 0 -0.4,0.4L 18 19.6a 0.4,0.4 0 0 0 0.4,0.4L 18.6 20a 0.4,0.4 0 0 0 0.4,-0.4L 19 19.4a 0.4,0.4 0 0 1 0.4,-0.4L 19.6 19a 0.4,0.4 0 0 1 0.4,0.4L 20 19.6a 0.4,0.4 0 0 0 0.4,0.4L 20.6 20a 0.4,0.4 0 0 1 0.4,0.4L 21 20.6a 0.4,0.4 0 0 1 -0.4,0.4L 17.4 21a 0.4,0.4 0 0 1 -0.4,-0.4L 17 20.4a 0.4,0.4 0 0 0 -0.4,-0.4L 16.4 20a 0.4,0.4 0 0 0 -0.4,0.4L 16 20.6a 0.4,0.4 0 0 1 -0.4,0.4L 13.4 21a 0.4,0.4 0 0 1 -0.4,-0.4L 13 20.4a 0.4,0.4 0 0 0 -0.4,-0.4L 12.4 20a 0.4,0.4 0 0 0 -0.4,0.4L 12 20.6a 0.4,0.4 0 0 1 -0.4,0.4L 11.4 21a 0.4,0.4 0 0 1 -0.4,-0.4L 11 19.4a 0.4,0.4 0 0 0 -0.4,-0.4L 10.4 19a 0.4,0.4 0 0 1 -0.4,-0.4L 10 18.4a 0.4,0.4 0 0 1 0.4,-0.4L 10.6 18a 0.4,0.4 0 0 0 0.4,-0.4zM 14 19.4a 0.4,0.4 0 0 1 0.4,-0.4L 14.6 19a 0.4,0.4 0 0 1 0.4,0.4L 15 19.6a 0.4,0.4 0 0 1 -0.4,0.4L 14.4 20a 0.4,0.4 0 0 1 -0.4,-0.4z M 19 17.4a 0.4,0.4 0 0 1 0.4,-0.4L 19.6 17a 0.4,0.4 0 0 1 0.4,0.4L 20 17.6a 0.4,0.4 0 0 1 -0.4,0.4L 19.4 18a 0.4,0.4 0 0 1 -0.4,-0.4z M 8 18.4a 0.4,0.4 0 0 1 0.4,-0.4L 8.6 18a 0.4,0.4 0 0 1 0.4,0.4L 9 18.6a 0.4,0.4 0 0 0 0.4,0.4L 9.6 19a 0.4,0.4 0 0 1 0.4,0.4L 10 20.6a 0.4,0.4 0 0 1 -0.4,0.4L 8.4 21a 0.4,0.4 0 0 1 -0.4,-0.4z M 20 18.4a 0.4,0.4 0 0 1 0.4,-0.4L 20.6 18a 0.4,0.4 0 0 1 0.4,0.4L 21 18.6a 0.4,0.4 0 0 1 -0.4,0.4L 20.4 19a 0.4,0.4 0 0 1 -0.4,-0.4z"></path><path id="qr squares" d="M1.05,0h4.9a1.05,1.05 0 0 1 1.05,1.05v4.9a1.05,1.05 0 0 1 -1.05,1.05h-4.9a1.05,1.05 0 0 1 -1.05,-1.05v-4.9a1.05,1.05 0 0 1 1.05,-1.05zM1.75,1h3.5a0.75,0.75 0 0 1 0.75,0.75v3.5a0.75,0.75 0 0 1 -0.75,0.75h-3.5a0.75,0.75 0 0 1 -0.75,-0.75v-3.5a0.75,0.75 0 0 1 0.75,-0.75zM2.45,2h2.1a0.44999999999999996,0.44999999999999996 0 0 1 0.44999999999999996,0.44999999999999996v2.1a0.44999999999999996,0.44999999999999996 0 0 1 -0.44999999999999996,0.44999999999999996h-2.1a0.44999999999999996,0.44999999999999996 0 0 1 -0.44999999999999996,-0.44999999999999996v-2.1a0.44999999999999996,0.44999999999999996 0 0 1 0.44999999999999996,-0.44999999999999996z M15.05,0h4.9a1.05,1.05 0 0 1 1.05,1.05v4.9a1.05,1.05 0 0 1 -1.05,1.05h-4.9a1.05,1.05 0 0 1 -1.05,-1.05v-4.9a1.05,1.05 0 0 1 1.05,-1.05zM15.75,1h3.5a0.75,0.75 0 0 1 0.75,0.75v3.5a0.75,0.75 0 0 1 -0.75,0.75h-3.5a0.75,0.75 0 0 1 -0.75,-0.75v-3.5a0.75,0.75 0 0 1 0.75,-0.75zM16.45,2h2.1a0.44999999999999996,0.44999999999999996 0 0 1 0.44999999999999996,0.44999999999999996v2.1a0.44999999999999996,0.44999999999999996 0 0 1 -0.44999999999999996,0.44999999999999996h-2.1a0.44999999999999996,0.44999999999999996 0 0 1 -0.44999999999999996,-0.44999999999999996v-2.1a0.44999999999999996,0.44999999999999996 0 0 1 0.44999999999999996,-0.44999999999999996z M1.05,14h4.9a1.05,1.05 0 0 1 1.05,1.05v4.9a1.05,1.05 0 0 1 -1.05,1.05h-4.9a1.05,1.05 0 0 1 -1.05,-1.05v-4.9a1.05,1.05 0 0 1 1.05,-1.05zM1.75,15h3.5a0.75,0.75 0 0 1 0.75,0.75v3.5a0.75,0.75 0 0 1 -0.75,0.75h-3.5a0.75,0.75 0 0 1 -0.75,-0.75v-3.5a0.75,0.75 0 0 1 0.75,-0.75zM2.45,16h2.1a0.44999999999999996,0.44999999999999996 0 0 1 0.44999999999999996,0.44999999999999996v2.1a0.44999999999999996,0.44999999999999996 0 0 1 -0.44999999999999996,0.44999999999999996h-2.1a0.44999999999999996,0.44999999999999996 0 0 1 -0.44999999999999996,-0.44999999999999996v-2.1a0.44999999999999996,0.44999999999999996 0 0 1 0.44999999999999996,-0.44999999999999996z" fill-rule="evenodd" fill-opacity="1" fill="rgb(81, 45, 168)"></path></svg>