<svg width="100%" height="100%" viewBox="-1 -1 31 31" xmlns="http://www.w3.org/2000/svg" xmlns:xlink="http://www.w3.org/1999/xlink" shape-rendering="geometricPrecision" id="qr code">
    <rect id="qr background" fill-opacity="1" fill="rgb(33, 33, 33)" x="-1" y="-1" width="31" height="31" ry="2.25"></rect>
    <path fill-opacity="1" fill="rgb(255, 113, 113)" id="qr pixels" d="M9.5,0.04999999999999999h0a0.45,0.45 0 0 1 0.45,0.45v0a0.45,0.45 0 0 1 -0.45,0.45h0a0.45,0.45 0 0 1 -0.45,-0.45v0a0.45,0.45 0 0 1 0.45,-0.45zM11.5,0.04999999999999999h0a0.45,0.45 0 0 1 0.45,0.45v0a0.45,0.45 0 0 1 -0.45,0.45h0a0.45,0.45 0 0 1 -0.45,-0.45v0a0.45,0.45 0 0 1 0.45,-0.45zM12.5,0.04999999999999999h0a0.45,0.45 0 0 1 0.45,0.45v0a0.45,0.45 0 0 1 -0.45,0.45h0a0.45,0.45 0 0 1 -0.45,-0.45v0a0.45,0.45 0 0 1 0.45,-0.45zM14.5,0.04999999999999999h0a0.45,0.45 0 0 1 0.45,0.45v0a0.45,0.45 0 0 1 -0.45,0.45h0a0.45,0.45 0 0 1 -0.45,-0.45v0a0.45,0.45 0 0 1 0.45,-0.45zM15.5,0.04999999999999999h0a0.45,0.45 0 0 1 0.45,0.45v0a0.45,0.45 0 0 1 -0.45,0.45h0a0.45,0.45 0 0 1 -0.45,-0.45v0a0.45,0.45 0 0 1 0.45,-0.45zM16.5,0.04999999999999999h0a0.45,0.45 0 0 1 0.45,0.45v0a0.45,0.45 0 0 1 -0.45,0.45h0a0.45,0.45 0 0 1 -0.45,-0.45v0a0.45,0.45 0 0 1 0.45,-0.45zM17.5,0.04999999999999999h0a0.45,0.45 0 0 1 0.45,0.45v0a0.45,0.45 0 0 1 -0.45,0.45h0a0.45,0.45 0 0 1 -0.45,-0.45v0a0.45,0.45 0 0 1 0.45,-0.45zM18.5,0.04999999999999999h0a0.45,0.45 0 0 1 0.45,0.45v0a0.45,0.45 0 0 1 -0.45,0.45h0a0.45,0.45 0 0 1 -0.45,-0.45v0a0.45,0.45 0 0 1 0.45,-0.45zM8.5,1.05h0a0.45,0.45 0 0 1 0.45,0.45v0a0.45,0.45 0 0 1 -0.45,0.45h0a0.45,0.45 0 0 1 -0.45,-0.45v0a0.45,0.45 0 0 1 0.45,-0.45zM10.5,1.05h0a0.45,0.45 0 0 1 0.45,0.45v0a0.45,0.45 0 0 1 -0.45,0.45h0a0.45,0.45 0 0 1 -0.45,-0.45v0a0.45,0.45 0 0 1 0.45,-0.45zM11.5,1.05h0a0.45,0.45 0 0 1 0.45,0.45v0a0.45,0.45 0 0 1 -0.45,0.45h0a0.45,0.45 0 0 1 -0.45,-0.45v0a0.45,0.45 0 0 1 0.45,-0.45zM12.5,1.05h0a0.45,0.45 0 0 1 0.45,0.45v0a0.45,0.45 0 0 1 -0.45,0.45h0a0.45,0.45 0 0 1 -0.45,-0.45v0a0.45,0.45 0 0 1 0.45,-0.45zM13.5,1.05h0a0.45,0.45 0 0 1 0.45,0.45v0a0.45,0.45 0 0 1 -0.45,0.45h0a0.45,0.45 0 0 1 -0.45,-0.45v0a0.45,0.45 0 0 1 0.45,-0.45zM15.5,1.05h0a0.45,0.45 0 0 1 0.45,0.45v0a0.45,0.45 0 0 1 -0.45,0.45h0a0.45,0.45 0 0 1 -0.45,-0.45v0a0.45,0.45 0 0 1 0.45,-0.45zM16.5,1.05h0a0.45,0.45 0 0 1 0.45,0.45v0a0.45,0.45 0 0 1 -0.45,0.45h0a0.45,0.45 0 0 1 -0.45,-0.45v0a0.45,0.45 0 0 1 0.45,-0.45zM17.5,1.05h0a0.45,0.45 0 0 1 0.45,0.45v0a0.45,0.45 0 0 1 -0.45,0.45h0a0.45,0.45 0 0 1 -0.45,-0.45v0a0.45,0.45 0 0 1 0.45,-0.45zM8.5,2.05h0a0.45,0.45 0 0 1 0.45,0.45v0a0.45,0.45 0 0 1 -0.45,0.45h0a0.45,0.45 0 0 1 -0.45,-0.45v0a0.45,0.45 0 0 1 0.45,-0.45zM11.5,2.05h0a0.45,0.45 0 0 1 0.45,0.45v0a0.45,0.45 0 0 1 -0.45,0.45h0a0.45,0.45 0 0 1 -0.45,-0.45v0a0.45,0.45 0 0 1 0.45,-0.45zM12.5,2.05h0a0.45,0.45 0 0 1 0.45,0.45v0a0.45,0.45 0 0 1 -0.45,0.45h0a0.45,0.45 0 0 1 -0.45,-0.45v0a0.45,0.45 0 0 1 0.45,-0.45zM13.5,2.05h0a0.45,0.45 0 0 1 0.45,0.45v0a0.45,0.45 0 0 1 -0.45,0.45h0a0.45,0.45 0 0 1 -0.45,-0.45v0a0.45,0.45 0 0 1 0.45,-0.45zM16.5,2.05h0a0.45,0.45 0 0 1 0.45,0.45v0a0.45,0.45 0 0 1 -0.45,0.45h0a0.45,0.45 0 0 1 -0.45,-0.45v0a0.45,0.45 0 0 1 0.45,-0.45zM17.5,2.05h0a0.45,0.45 0 0 1 0.45,0.45v0a0.45,0.45 0 0 1 -0.45,0.45h0a0.45,0.45 0 0 1 -0.45,-0.45v0a0.45,0.45 0 0 1 0.45,-0.45zM19.5,2.05h0a0.45,0.45 0 0 1 0.45,0.45v0a0.45,0.45 0 0 1 -0.45,0.45h0a0.45,0.45 0 0 1 -0.45,-0.45v0a0.45,0.45 0 0 1 0.45,-0.45zM8.5,3.05h0a0.45,0.45 0 0 1 0.45,0.45v0a0.45,0.45 0 0 1 -0.45,0.45h0a0.45,0.45 0 0 1 -0.45,-0.45v0a0.45,0.45 0 0 1 0.45,-0.45zM10.5,3.05h0a0.45,0.45 0 0 1 0.45,0.45v0a0.45,0.45 0 0 1 -0.45,0.45h0a0.45,0.45 0 0 1 -0.45,-0.45v0a0.45,0.45 0 0 1 0.45,-0.45zM11.5,3.05h0a0.45,0.45 0 0 1 0.45,0.45v0a0.45,0.45 0 0 1 -0.45,0.45h0a0.45,0.45 0 0 1 -0.45,-0.45v0a0.45,0.45 0 0 1 0.45,-0.45zM12.5,3.05h0a0.45,0.45 0 0 1 0.45,0.45v0a0.45,0.45 0 0 1 -0.45,0.45h0a0.45,0.45 0 0 1 -0.45,-0.45v0a0.45,0.45 0 0 1 0.45,-0.45zM13.5,3.05h0a0.45,0.45 0 0 1 0.45,0.45v0a0.45,0.45 0 0 1 -0.45,0.45h0a0.45,0.45 0 0 1 -0.45,-0.45v0a0.45,0.45 0 0 1 0.45,-0.45zM14.5,3.05h0a0.45,0.45 0 0 1 0.45,0.45v0a0.45,0.45 0 0 1 -0.45,0.45h0a0.45,0.45 0 0 1 -0.45,-0.45v0a0.45,0.45 0 0 1 0.45,-0.45zM17.5,3.05h0a0.45,0.45 0 0 1 0.45,0.45v0a0.45,0.45 0 0 1 -0.45,0.45h0a0.45,0.45 0 0 1 -0.45,-0.45v0a0.45,0.45 0 0 1 0.45,-0.45zM18.5,3.05h0a0.45,0.45 0 0 1 0.45,0.45v0a0.45,0.45 0 0 1 -0.45,0.45h0a0.45,0.45 0 0 1 -0.45,-0.45v0a0.45,0.45 0 0 1 0.45,-0.45zM20.5,3.05h0a0.45,0.45 0 0 1 0.45,0.45v0a0.45,0.45 0 0 1 -0.45,0.45h0a0.45,0.45 0 0 1 -0.45,-0.45v0a0.45,0.45 0 0 1 0.45,-0.45zM8.5,4.05h0a0.45,0.45 0 0 1 0.45,0.45v0a0.45,0.45 0 0 1 -0.45,0.45h0a0.45,0.45 0 0 1 -0.45,-0.45v0a0.45,0.45 0 0 1 0.45,-0.45zM9.5,4.05h0a0.45,0.45 0 0 1 0.45,0.45v0a0.45,0.45 0 0 1 -0.45,0.45h0a0.45,0.45 0 0 1 -0.45,-0.45v0a0.45,0.45 0 0 1 0.45,-0.45zM11.5,4.05h0a0.45,0.45 0 0 1 0.45,0.45v0a0.45,0.45 0 0 1 -0.45,0.45h0a0.45,0.45 0 0 1 -0.45,-0.45v0a0.45,0.45 0 0 1 0.45,-0.45zM12.5,4.05h0a0.45,0.45 0 0 1 0.45,0.45v0a0.45,0.45 0 0 1 -0.45,0.45h0a0.45,0.45 0 0 1 -0.45,-0.45v0a0.45,0.45 0 0 1 0.45,-0.45zM16.5,4.05h0a0.45,0.45 0 0 1 0.45,0.45v0a0.45,0.45 0 0 1 -0.45,0.45h0a0.45,0.45 0 0 1 -0.45,-0.45v0a0.45,0.45 0 0 1 0.45,-0.45zM17.5,4.05h0a0.45,0.45 0 0 1 0.45,0.45v0a0.45,0.45 0 0 1 -0.45,0.45h0a0.45,0.45 0 0 1 -0.45,-0.45v0a0.45,0.45 0 0 1 0.45,-0.45zM8.5,5.05h0a0.45,0.45 0 0 1 0.45,0.45v0a0.45,0.45 0 0 1 -0.45,0.45h0a0.45,0.45 0 0 1 -0.45,-0.45v0a0.45,0.45 0 0 1 0.45,-0.45zM9.5,5.05h0a0.45,0.45 0 0 1 0.45,0.45v0a0.45,0.45 0 0 1 -0.45,0.45h0a0.45,0.45 0 0 1 -0.45,-0.45v0a0.45,0.45 0 0 1 0.45,-0.45zM13.5,5.05h0a0.45,0.45 0 0 1 0.45,0.45v0a0.45,0.45 0 0 1 -0.45,0.45h0a0.45,0.45 0 0 1 -0.45,-0.45v0a0.45,0.45 0 0 1 0.45,-0.45zM18.5,5.05h0a0.45,0.45 0 0 1 0.45,0.45v0a0.45,0.45 0 0 1 -0.45,0.45h0a0.45,0.45 0 0 1 -0.45,-0.45v0a0.45,0.45 0 0 1 0.45,-0.45zM20.5,5.05h0a0.45,0.45 0 0 1 0.45,0.45v0a0.45,0.45 0 0 1 -0.45,0.45h0a0.45,0.45 0 0 1 -0.45,-0.45v0a0.45,0.45 0 0 1 0.45,-0.45zM8.5,6.05h0a0.45,0.45 0 0 1 0.45,0.45v0a0.45,0.45 0 0 1 -0.45,0.45h0a0.45,0.45 0 0 1 -0.45,-0.45v0a0.45,0.45 0 0 1 0.45,-0.45zM10.5,6.05h0a0.45,0.45 0 0 1 0.45,0.45v0a0.45,0.45 0 0 1 -0.45,0.45h0a0.45,0.45 0 0 1 -0.45,-0.45v0a0.45,0.45 0 0 1 0.45,-0.45zM12.5,6.05h0a0.45,0.45 0 0 1 0.45,0.45v0a0.45,0.45 0 0 1 -0.45,0.45h0a0.45,0.45 0 0 1 -0.45,-0.45v0a0.45,0.45 0 0 1 0.45,-0.45zM14.5,6.05h0a0.45,0.45 0 0 1 0.45,0.45v0a0.45,0.45 0 0 1 -0.45,0.45h0a0.45,0.45 0 0 1 -0.45,-0.45v0a0.45,0.45 0 0 1 0.45,-0.45zM16.5,6.05h0a0.45,0.45 0 0 1 0.45,0.45v0a0.45,0.45 0 0 1 -0.45,0.45h0a0.45,0.45 0 0 1 -0.45,-0.45v0a0.45,0.45 0 0 1 0.45,-0.45zM18.5,6.05h0a0.45,0.45 0 0 1 0.45,0.45v0a0.45,0.45 0 0 1 -0.45,0.45h0a0.45,0.45 0 0 1 -0.45,-0.45v0a0.45,0.45 0 0 1 0.45,-0.45zM20.5,6.05h0a0.45,0.45 0 0 1 0.45,0.45v0a0.45,0.45 0 0 1 -0.45,0.45h0a0.45,0.45 0 0 1 -0.45,-0.45v0a0.45,0.45 0 0 1 0.45,-0.45zM9.5,7.05h0a0.45,0.45 0 0 1 0.45,0.45v0a0.45,0.45 0 0 1 -0.45,0.45h0a0.45,0.45 0 0 1 -0.45,-0.45v0a0.45,0.45 0 0 1 0.45,-0.45zM10.5,7.05h0a0.45,0.45 0 0 1 0.45,0.45v0a0.45,0.45 0 0 1 -0.45,0.45h0a0.45,0.45 0 0 1 -0.45,-0.45v0a0.45,0.45 0 0 1 0.45,-0.45zM12.5,7.05h0a0.45,0.45 0 0 1 0.45,0.45v0a0.45,0.45 0 0 1 -0.45,0.45h0a0.45,0.45 0 0 1 -0.45,-0.45v0a0.45,0.45 0 0 1 0.45,-0.45zM14.5,7.05h0a0.45,0.45 0 0 1 0.45,0.45v0a0.45,0.45 0 0 1 -0.45,0.45h0a0.45,0.45 0 0 1 -0.45,-0.45v0a0.45,0.45 0 0 1 0.45,-0.45zM15.5,7.05h0a0.45,0.45 0 0 1 0.45,0.45v0a0.45,0.45 0 0 1 -0.45,0.45h0a0.45,0.45 0 0 1 -0.45,-0.45v0a0.45,0.45 0 0 1 0.45,-0.45zM18.5,7.05h0a0.45,0.45 0 0 1 0.45,0.45v0a0.45,0.45 0 0 1 -0.45,0.45h0a0.45,0.45 0 0 1 -0.45,-0.45v0a0.45,0.45 0 0 1 0.45,-0.45zM20.5,7.05h0a0.45,0.45 0 0 1 0.45,0.45v0a0.45,0.45 0 0 1 -0.45,0.45h0a0.45,0.45 0 0 1 -0.45,-0.45v0a0.45,0.45 0 0 1 0.45,-0.45zM2.5,8.05h0a0.45,0.45 0 0 1 0.45,0.45v0a0.45,0.45 0 0 1 -0.45,0.45h0a0.45,0.45 0 0 1 -0.45,-0.45v0a0.45,0.45 0 0 1 0.45,-0.45zM5.5,8.05h0a0.45,0.45 0 0 1 0.45,0.45v0a0.45,0.45 0 0 1 -0.45,0.45h0a0.45,0.45 0 0 1 -0.45,-0.45v0a0.45,0.45 0 0 1 0.45,-0.45zM6.5,8.05h0a0.45,0.45 0 0 1 0.45,0.45v0a0.45,0.45 0 0 1 -0.45,0.45h0a0.45,0.45 0 0 1 -0.45,-0.45v0a0.45,0.45 0 0 1 0.45,-0.45zM7.5,8.05h0a0.45,0.45 0 0 1 0.45,0.45v0a0.45,0.45 0 0 1 -0.45,0.45h0a0.45,0.45 0 0 1 -0.45,-0.45v0a0.45,0.45 0 0 1 0.45,-0.45zM8.5,8.05h0a0.45,0.45 0 0 1 0.45,0.45v0a0.45,0.45 0 0 1 -0.45,0.45h0a0.45,0.45 0 0 1 -0.45,-0.45v0a0.45,0.45 0 0 1 0.45,-0.45zM10.5,8.05h0a0.45,0.45 0 0 1 0.45,0.45v0a0.45,0.45 0 0 1 -0.45,0.45h0a0.45,0.45 0 0 1 -0.45,-0.45v0a0.45,0.45 0 0 1 0.45,-0.45zM11.5,8.05h0a0.45,0.45 0 0 1 0.45,0.45v0a0.45,0.45 0 0 1 -0.45,0.45h0a0.45,0.45 0 0 1 -0.45,-0.45v0a0.45,0.45 0 0 1 0.45,-0.45zM15.5,8.05h0a0.45,0.45 0 0 1 0.45,0.45v0a0.45,0.45 0 0 1 -0.45,0.45h0a0.45,0.45 0 0 1 -0.45,-0.45v0a0.45,0.45 0 0 1 0.45,-0.45zM16.5,8.05h0a0.45,0.45 0 0 1 0.45,0.45v0a0.45,0.45 0 0 1 -0.45,0.45h0a0.45,0.45 0 0 1 -0.45,-0.45v0a0.45,0.45 0 0 1 0.45,-0.45zM17.5,8.05h0a0.45,0.45 0 0 1 0.45,0.45v0a0.45,0.45 0 0 1 -0.45,0.45h0a0.45,0.45 0 0 1 -0.45,-0.45v0a0.45,0.45 0 0 1 0.45,-0.45zM18.5,8.05h0a0.45,0.45 0 0 1 0.45,0.45v0a0.45,0.45 0 0 1 -0.45,0.45h0a0.45,0.45 0 0 1 -0.45,-0.45v0a0.45,0.45 0 0 1 0.45,-0.45zM19.5,8.05h0a0.45,0.45 0 0 1 0.45,0.45v0a0.45,0.45 0 0 1 -0.45,0.45h0a0.45,0.45 0 0 1 -0.45,-0.45v0a0.45,0.45 0 0 1 0.45,-0.45zM20.5,8.05h0a0.45,0.45 0 0 1 0.45,0.45v0a0.45,0.45 0 0 1 -0.45,0.45h0a0.45,0.45 0 0 1 -0.45,-0.45v0a0.45,0.45 0 0 1 0.45,-0.45zM21.5,8.05h0a0.45,0.45 0 0 1 0.45,0.45v0a0.45,0.45 0 0 1 -0.45,0.45h0a0.45,0.45 0 0 1 -0.45,-0.45v0a0.45,0.45 0 0 1 0.45,-0.45zM23.5,8.05h0a0.45,0.45 0 0 1 0.45,0.45v0a0.45,0.45 0 0 1 -0.45,0.45h0a0.45,0.45 0 0 1 -0.45,-0.45v0a0.45,0.45 0 0 1 0.45,-0.45zM24.5,8.05h0a0.45,0.45 0 0 1 0.45,0.45v0a0.45,0.45 0 0 1 -0.45,0.45h0a0.45,0.45 0 0 1 -0.45,-0.45v0a0.45,0.45 0 0 1 0.45,-0.45zM25.5,8.05h0a0.45,0.45 0 0 1 0.45,0.45v0a0.45,0.45 0 0 1 -0.45,0.45h0a0.45,0.45 0 0 1 -0.45,-0.45v0a0.45,0.45 0 0 1 0.45,-0.45zM26.5,8.05h0a0.45,0.45 0 0 1 0.45,0.45v0a0.45,0.45 0 0 1 -0.45,0.45h0a0.45,0.45 0 0 1 -0.45,-0.45v0a0.45,0.45 0 0 1 0.45,-0.45zM27.5,8.05h0a0.45,0.45 0 0 1 0.45,0.45v0a0.45,0.45 0 0 1 -0.45,0.45h0a0.45,0.45 0 0 1 -0.45,-0.45v0a0.45,0.45 0 0 1 0.45,-0.45zM1.5,9.05h0a0.45,0.45 0 0 1 0.45,0.45v0a0.45,0.45 0 0 1 -0.45,0.45h0a0.45,0.45 0 0 1 -0.45,-0.45v0a0.45,0.45 0 0 1 0.45,-0.45zM3.5,9.05h0a0.45,0.45 0 0 1 0.45,0.45v0a0.45,0.45 0 0 1 -0.45,0.45h0a0.45,0.45 0 0 1 -0.45,-0.45v0a0.45,0.45 0 0 1 0.45,-0.45zM20.5,9.05h0a0.45,0.45 0 0 1 0.45,0.45v0a0.45,0.45 0 0 1 -0.45,0.45h0a0.45,0.45 0 0 1 -0.45,-0.45v0a0.45,0.45 0 0 1 0.45,-0.45zM22.5,9.05h0a0.45,0.45 0 0 1 0.45,0.45v0a0.45,0.45 0 0 1 -0.45,0.45h0a0.45,0.45 0 0 1 -0.45,-0.45v0a0.45,0.45 0 0 1 0.45,-0.45zM23.5,9.05h0a0.45,0.45 0 0 1 0.45,0.45v0a0.45,0.45 0 0 1 -0.45,0.45h0a0.45,0.45 0 0 1 -0.45,-0.45v0a0.45,0.45 0 0 1 0.45,-0.45zM28.5,9.05h0a0.45,0.45 0 0 1 0.45,0.45v0a0.45,0.45 0 0 1 -0.45,0.45h0a0.45,0.45 0 0 1 -0.45,-0.45v0a0.45,0.45 0 0 1 0.45,-0.45zM0.5,10.05h0a0.45,0.45 0 0 1 0.45,0.45v0a0.45,0.45 0 0 1 -0.45,0.45h0a0.45,0.45 0 0 1 -0.45,-0.45v0a0.45,0.45 0 0 1 0.45,-0.45zM2.5,10.05h0a0.45,0.45 0 0 1 0.45,0.45v0a0.45,0.45 0 0 1 -0.45,0.45h0a0.45,0.45 0 0 1 -0.45,-0.45v0a0.45,0.45 0 0 1 0.45,-0.45zM4.5,10.05h0a0.45,0.45 0 0 1 0.45,0.45v0a0.45,0.45 0 0 1 -0.45,0.45h0a0.45,0.45 0 0 1 -0.45,-0.45v0a0.45,0.45 0 0 1 0.45,-0.45zM6.5,10.05h0a0.45,0.45 0 0 1 0.45,0.45v0a0.45,0.45 0 0 1 -0.45,0.45h0a0.45,0.45 0 0 1 -0.45,-0.45v0a0.45,0.45 0 0 1 0.45,-0.45zM7.5,10.05h0a0.45,0.45 0 0 1 0.45,0.45v0a0.45,0.45 0 0 1 -0.45,0.45h0a0.45,0.45 0 0 1 -0.45,-0.45v0a0.45,0.45 0 0 1 0.45,-0.45zM21.5,10.05h0a0.45,0.45 0 0 1 0.45,0.45v0a0.45,0.45 0 0 1 -0.45,0.45h0a0.45,0.45 0 0 1 -0.45,-0.45v0a0.45,0.45 0 0 1 0.45,-0.45zM24.5,10.05h0a0.45,0.45 0 0 1 0.45,0.45v0a0.45,0.45 0 0 1 -0.45,0.45h0a0.45,0.45 0 0 1 -0.45,-0.45v0a0.45,0.45 0 0 1 0.45,-0.45zM26.5,10.05h0a0.45,0.45 0 0 1 0.45,0.45v0a0.45,0.45 0 0 1 -0.45,0.45h0a0.45,0.45 0 0 1 -0.45,-0.45v0a0.45,0.45 0 0 1 0.45,-0.45zM28.5,10.05h0a0.45,0.45 0 0 1 0.45,0.45v0a0.45,0.45 0 0 1 -0.45,0.45h0a0.45,0.45 0 0 1 -0.45,-0.45v0a0.45,0.45 0 0 1 0.45,-0.45zM0.5,11.05h0a0.45,0.45 0 0 1 0.45,0.45v0a0.45,0.45 0 0 1 -0.45,0.45h0a0.45,0.45 0 0 1 -0.45,-0.45v0a0.45,0.45 0 0 1 0.45,-0.45zM1.5,11.05h0a0.45,0.45 0 0 1 0.45,0.45v0a0.45,0.45 0 0 1 -0.45,0.45h0a0.45,0.45 0 0 1 -0.45,-0.45v0a0.45,0.45 0 0 1 0.45,-0.45zM3.5,11.05h0a0.45,0.45 0 0 1 0.45,0.45v0a0.45,0.45 0 0 1 -0.45,0.45h0a0.45,0.45 0 0 1 -0.45,-0.45v0a0.45,0.45 0 0 1 0.45,-0.45zM5.5,11.05h0a0.45,0.45 0 0 1 0.45,0.45v0a0.45,0.45 0 0 1 -0.45,0.45h0a0.45,0.45 0 0 1 -0.45,-0.45v0a0.45,0.45 0 0 1 0.45,-0.45zM20.5,11.05h0a0.45,0.45 0 0 1 0.45,0.45v0a0.45,0.45 0 0 1 -0.45,0.45h0a0.45,0.45 0 0 1 -0.45,-0.45v0a0.45,0.45 0 0 1 0.45,-0.45zM21.5,11.05h0a0.45,0.45 0 0 1 0.45,0.45v0a0.45,0.45 0 0 1 -0.45,0.45h0a0.45,0.45 0 0 1 -0.45,-0.45v0a0.45,0.45 0 0 1 0.45,-0.45zM23.5,11.05h0a0.45,0.45 0 0 1 0.45,0.45v0a0.45,0.45 0 0 1 -0.45,0.45h0a0.45,0.45 0 0 1 -0.45,-0.45v0a0.45,0.45 0 0 1 0.45,-0.45zM24.5,11.05h0a0.45,0.45 0 0 1 0.45,0.45v0a0.45,0.45 0 0 1 -0.45,0.45h0a0.45,0.45 0 0 1 -0.45,-0.45v0a0.45,0.45 0 0 1 0.45,-0.45zM1.5,12.05h0a0.45,0.45 0 0 1 0.45,0.45v0a0.45,0.45 0 0 1 -0.45,0.45h0a0.45,0.45 0 0 1 -0.45,-0.45v0a0.45,0.45 0 0 1 0.45,-0.45zM2.5,12.05h0a0.45,0.45 0 0 1 0.45,0.45v0a0.45,0.45 0 0 1 -0.45,0.45h0a0.45,0.45 0 0 1 -0.45,-0.45v0a0.45,0.45 0 0 1 0.45,-0.45zM6.5,12.05h0a0.45,0.45 0 0 1 0.45,0.45v0a0.45,0.45 0 0 1 -0.45,0.45h0a0.45,0.45 0 0 1 -0.45,-0.45v0a0.45,0.45 0 0 1 0.45,-0.45zM7.5,12.05h0a0.45,0.45 0 0 1 0.45,0.45v0a0.45,0.45 0 0 1 -0.45,0.45h0a0.45,0.45 0 0 1 -0.45,-0.45v0a0.45,0.45 0 0 1 0.45,-0.45zM8.5,12.05h0a0.45,0.45 0 0 1 0.45,0.45v0a0.45,0.45 0 0 1 -0.45,0.45h0a0.45,0.45 0 0 1 -0.45,-0.45v0a0.45,0.45 0 0 1 0.45,-0.45zM22.5,12.05h0a0.45,0.45 0 0 1 0.45,0.45v0a0.45,0.45 0 0 1 -0.45,0.45h0a0.45,0.45 0 0 1 -0.45,-0.45v0a0.45,0.45 0 0 1 0.45,-0.45zM23.5,12.05h0a0.45,0.45 0 0 1 0.45,0.45v0a0.45,0.45 0 0 1 -0.45,0.45h0a0.45,0.45 0 0 1 -0.45,-0.45v0a0.45,0.45 0 0 1 0.45,-0.45zM25.5,12.05h0a0.45,0.45 0 0 1 0.45,0.45v0a0.45,0.45 0 0 1 -0.45,0.45h0a0.45,0.45 0 0 1 -0.45,-0.45v0a0.45,0.45 0 0 1 0.45,-0.45zM28.5,12.05h0a0.45,0.45 0 0 1 0.45,0.45v0a0.45,0.45 0 0 1 -0.45,0.45h0a0.45,0.45 0 0 1 -0.45,-0.45v0a0.45,0.45 0 0 1 0.45,-0.45zM0.5,13.05h0a0.45,0.45 0 0 1 0.45,0.45v0a0.45,0.45 0 0 1 -0.45,0.45h0a0.45,0.45 0 0 1 -0.45,-0.45v0a0.45,0.45 0 0 1 0.45,-0.45zM1.5,13.05h0a0.45,0.45 0 0 1 0.45,0.45v0a0.45,0.45 0 0 1 -0.45,0.45h0a0.45,0.45 0 0 1 -0.45,-0.45v0a0.45,0.45 0 0 1 0.45,-0.45zM2.5,13.05h0a0.45,0.45 0 0 1 0.45,0.45v0a0.45,0.45 0 0 1 -0.45,0.45h0a0.45,0.45 0 0 1 -0.45,-0.45v0a0.45,0.45 0 0 1 0.45,-0.45zM4.5,13.05h0a0.45,0.45 0 0 1 0.45,0.45v0a0.45,0.45 0 0 1 -0.45,0.45h0a0.45,0.45 0 0 1 -0.45,-0.45v0a0.45,0.45 0 0 1 0.45,-0.45zM5.5,13.05h0a0.45,0.45 0 0 1 0.45,0.45v0a0.45,0.45 0 0 1 -0.45,0.45h0a0.45,0.45 0 0 1 -0.45,-0.45v0a0.45,0.45 0 0 1 0.45,-0.45zM20.5,13.05h0a0.45,0.45 0 0 1 0.45,0.45v0a0.45,0.45 0 0 1 -0.45,0.45h0a0.45,0.45 0 0 1 -0.45,-0.45v0a0.45,0.45 0 0 1 0.45,-0.45zM21.5,13.05h0a0.45,0.45 0 0 1 0.45,0.45v0a0.45,0.45 0 0 1 -0.45,0.45h0a0.45,0.45 0 0 1 -0.45,-0.45v0a0.45,0.45 0 0 1 0.45,-0.45zM22.5,13.05h0a0.45,0.45 0 0 1 0.45,0.45v0a0.45,0.45 0 0 1 -0.45,0.45h0a0.45,0.45 0 0 1 -0.45,-0.45v0a0.45,0.45 0 0 1 0.45,-0.45zM23.5,13.05h0a0.45,0.45 0 0 1 0.45,0.45v0a0.45,0.45 0 0 1 -0.45,0.45h0a0.45,0.45 0 0 1 -0.45,-0.45v0a0.45,0.45 0 0 1 0.45,-0.45zM26.5,13.05h0a0.45,0.45 0 0 1 0.45,0.45v0a0.45,0.45 0 0 1 -0.45,0.45h0a0.45,0.45 0 0 1 -0.45,-0.45v0a0.45,0.45 0 0 1 0.45,-0.45zM28.5,13.05h0a0.45,0.45 0 0 1 0.45,0.45v0a0.45,0.45 0 0 1 -0.45,0.45h0a0.45,0.45 0 0 1 -0.45,-0.45v0a0.45,0.45 0 0 1 0.45,-0.45zM0.5,14.05h0a0.45,0.45 0 0 1 0.45,0.45v0a0.45,0.45 0 0 1 -0.45,0.45h0a0.45,0.45 0 0 1 -0.45,-0.45v0a0.45,0.45 0 0 1 0.45,-0.45zM1.5,14.05h0a0.45,0.45 0 0 1 0.45,0.45v0a0.45,0.45 0 0 1 -0.45,0.45h0a0.45,0.45 0 0 1 -0.45,-0.45v0a0.45,0.45 0 0 1 0.45,-0.45zM2.5,14.05h0a0.45,0.45 0 0 1 0.45,0.45v0a0.45,0.45 0 0 1 -0.45,0.45h0a0.45,0.45 0 0 1 -0.45,-0.45v0a0.45,0.45 0 0 1 0.45,-0.45zM3.5,14.05h0a0.45,0.45 0 0 1 0.45,0.45v0a0.45,0.45 0 0 1 -0.45,0.45h0a0.45,0.45 0 0 1 -0.45,-0.45v0a0.45,0.45 0 0 1 0.45,-0.45zM6.5,14.05h0a0.45,0.45 0 0 1 0.45,0.45v0a0.45,0.45 0 0 1 -0.45,0.45h0a0.45,0.45 0 0 1 -0.45,-0.45v0a0.45,0.45 0 0 1 0.45,-0.45zM7.5,14.05h0a0.45,0.45 0 0 1 0.45,0.45v0a0.45,0.45 0 0 1 -0.45,0.45h0a0.45,0.45 0 0 1 -0.45,-0.45v0a0.45,0.45 0 0 1 0.45,-0.45zM8.5,14.05h0a0.45,0.45 0 0 1 0.45,0.45v0a0.45,0.45 0 0 1 -0.45,0.45h0a0.45,0.45 0 0 1 -0.45,-0.45v0a0.45,0.45 0 0 1 0.45,-0.45zM20.5,14.05h0a0.45,0.45 0 0 1 0.45,0.45v0a0.45,0.45 0 0 1 -0.45,0.45h0a0.45,0.45 0 0 1 -0.45,-0.45v0a0.45,0.45 0 0 1 0.45,-0.45zM23.5,14.05h0a0.45,0.45 0 0 1 0.45,0.45v0a0.45,0.45 0 0 1 -0.45,0.45h0a0.45,0.45 0 0 1 -0.45,-0.45v0a0.45,0.45 0 0 1 0.45,-0.45zM24.5,14.05h0a0.45,0.45 0 0 1 0.45,0.45v0a0.45,0.45 0 0 1 -0.45,0.45h0a0.45,0.45 0 0 1 -0.45,-0.45v0a0.45,0.45 0 0 1 0.45,-0.45zM25.5,14.05h0a0.45,0.45 0 0 1 0.45,0.45v0a0.45,0.45 0 0 1 -0.45,0.45h0a0.45,0.45 0 0 1 -0.45,-0.45v0a0.45,0.45 0 0 1 0.45,-0.45zM26.5,14.05h0a0.45,0.45 0 0 1 0.45,0.45v0a0.45,0.45 0 0 1 -0.45,0.45h0a0.45,0.45 0 0 1 -0.45,-0.45v0a0.45,0.45 0 0 1 0.45,-0.45zM28.5,14.05h0a0.45,0.45 0 0 1 0.45,0.45v0a0.45,0.45 0 0 1 -0.45,0.45h0a0.45,0.45 0 0 1 -0.45,-0.45v0a0.45,0.45 0 0 1 0.45,-0.45zM1.5,15.05h0a0.45,0.45 0 0 1 0.45,0.45v0a0.45,0.45 0 0 1 -0.45,0.45h0a0.45,0.45 0 0 1 -0.45,-0.45v0a0.45,0.45 0 0 1 0.45,-0.45zM2.5,15.05h0a0.45,0.45 0 0 1 0.45,0.45v0a0.45,0.45 0 0 1 -0.45,0.45h0a0.45,0.45 0 0 1 -0.45,-0.45v0a0.45,0.45 0 0 1 0.45,-0.45zM3.5,15.05h0a0.45,0.45 0 0 1 0.45,0.45v0a0.45,0.45 0 0 1 -0.45,0.45h0a0.45,0.45 0 0 1 -0.45,-0.45v0a0.45,0.45 0 0 1 0.45,-0.45zM7.5,15.05h0a0.45,0.45 0 0 1 0.45,0.45v0a0.45,0.45 0 0 1 -0.45,0.45h0a0.45,0.45 0 0 1 -0.45,-0.45v0a0.45,0.45 0 0 1 0.45,-0.45zM8.5,15.05h0a0.45,0.45 0 0 1 0.45,0.45v0a0.45,0.45 0 0 1 -0.45,0.45h0a0.45,0.45 0 0 1 -0.45,-0.45v0a0.45,0.45 0 0 1 0.45,-0.45zM21.5,15.05h0a0.45,0.45 0 0 1 0.45,0.45v0a0.45,0.45 0 0 1 -0.45,0.45h0a0.45,0.45 0 0 1 -0.45,-0.45v0a0.45,0.45 0 0 1 0.45,-0.45zM22.5,15.05h0a0.45,0.45 0 0 1 0.45,0.45v0a0.45,0.45 0 0 1 -0.45,0.45h0a0.45,0.45 0 0 1 -0.45,-0.45v0a0.45,0.45 0 0 1 0.45,-0.45zM25.5,15.05h0a0.45,0.45 0 0 1 0.45,0.45v0a0.45,0.45 0 0 1 -0.45,0.45h0a0.45,0.45 0 0 1 -0.45,-0.45v0a0.45,0.45 0 0 1 0.45,-0.45zM2.5,16.05h0a0.45,0.45 0 0 1 0.45,0.45v0a0.45,0.45 0 0 1 -0.45,0.45h0a0.45,0.45 0 0 1 -0.45,-0.45v0a0.45,0.45 0 0 1 0.45,-0.45zM3.5,16.05h0a0.45,0.45 0 0 1 0.45,0.45v0a0.45,0.45 0 0 1 -0.45,0.45h0a0.45,0.45 0 0 1 -0.45,-0.45v0a0.45,0.45 0 0 1 0.45,-0.45zM4.5,16.05h0a0.45,0.45 0 0 1 0.45,0.45v0a0.45,0.45 0 0 1 -0.45,0.45h0a0.45,0.45 0 0 1 -0.45,-0.45v0a0.45,0.45 0 0 1 0.45,-0.45zM6.5,16.05h0a0.45,0.45 0 0 1 0.45,0.45v0a0.45,0.45 0 0 1 -0.45,0.45h0a0.45,0.45 0 0 1 -0.45,-0.45v0a0.45,0.45 0 0 1 0.45,-0.45zM8.5,16.05h0a0.45,0.45 0 0 1 0.45,0.45v0a0.45,0.45 0 0 1 -0.45,0.45h0a0.45,0.45 0 0 1 -0.45,-0.45v0a0.45,0.45 0 0 1 0.45,-0.45zM20.5,16.05h0a0.45,0.45 0 0 1 0.45,0.45v0a0.45,0.45 0 0 1 -0.45,0.45h0a0.45,0.45 0 0 1 -0.45,-0.45v0a0.45,0.45 0 0 1 0.45,-0.45zM21.5,16.05h0a0.45,0.45 0 0 1 0.45,0.45v0a0.45,0.45 0 0 1 -0.45,0.45h0a0.45,0.45 0 0 1 -0.45,-0.45v0a0.45,0.45 0 0 1 0.45,-0.45zM22.5,16.05h0a0.45,0.45 0 0 1 0.45,0.45v0a0.45,0.45 0 0 1 -0.45,0.45h0a0.45,0.45 0 0 1 -0.45,-0.45v0a0.45,0.45 0 0 1 0.45,-0.45zM23.5,16.05h0a0.45,0.45 0 0 1 0.45,0.45v0a0.45,0.45 0 0 1 -0.45,0.45h0a0.45,0.45 0 0 1 -0.45,-0.45v0a0.45,0.45 0 0 1 0.45,-0.45zM25.5,16.05h0a0.45,0.45 0 0 1 0.45,0.45v0a0.45,0.45 0 0 1 -0.45,0.45h0a0.45,0.45 0 0 1 -0.45,-0.45v0a0.45,0.45 0 0 1 0.45,-0.45zM27.5,16.05h0a0.45,0.45 0 0 1 0.45,0.45v0a0.45,0.45 0 0 1 -0.45,0.45h0a0.45,0.45 0 0 1 -0.45,-0.45v0a0.45,0.45 0 0 1 0.45,-0.45zM28.5,16.05h0a0.45,0.45 0 0 1 0.45,0.45v0a0.45,0.45 0 0 1 -0.45,0.45h0a0.45,0.45 0 0 1 -0.45,-0.45v0a0.45,0.45 0 0 1 0.45,-0.45zM5.5,17.05h0a0.45,0.45 0 0 1 0.45,0.45v0a0.45,0.45 0 0 1 -0.45,0.45h0a0.45,0.45 0 0 1 -0.45,-0.45v0a0.45,0.45 0 0 1 0.45,-0.45zM8.5,17.05h0a0.45,0.45 0 0 1 0.45,0.45v0a0.45,0.45 0 0 1 -0.45,0.45h0a0.45,0.45 0 0 1 -0.45,-0.45v0a0.45,0.45 0 0 1 0.45,-0.45zM20.5,17.05h0a0.45,0.45 0 0 1 0.45,0.45v0a0.45,0.45 0 0 1 -0.45,0.45h0a0.45,0.45 0 0 1 -0.45,-0.45v0a0.45,0.45 0 0 1 0.45,-0.45zM22.5,17.05h0a0.45,0.45 0 0 1 0.45,0.45v0a0.45,0.45 0 0 1 -0.45,0.45h0a0.45,0.45 0 0 1 -0.45,-0.45v0a0.45,0.45 0 0 1 0.45,-0.45zM23.5,17.05h0a0.45,0.45 0 0 1 0.45,0.45v0a0.45,0.45 0 0 1 -0.45,0.45h0a0.45,0.45 0 0 1 -0.45,-0.45v0a0.45,0.45 0 0 1 0.45,-0.45zM27.5,17.05h0a0.45,0.45 0 0 1 0.45,0.45v0a0.45,0.45 0 0 1 -0.45,0.45h0a0.45,0.45 0 0 1 -0.45,-0.45v0a0.45,0.45 0 0 1 0.45,-0.45zM28.5,17.05h0a0.45,0.45 0 0 1 0.45,0.45v0a0.45,0.45 0 0 1 -0.45,0.45h0a0.45,0.45 0 0 1 -0.45,-0.45v0a0.45,0.45 0 0 1 0.45,-0.45zM0.5,18.05h0a0.45,0.45 0 0 1 0.45,0.45v0a0.45,0.45 0 0 1 -0.45,0.45h0a0.45,0.45 0 0 1 -0.45,-0.45v0a0.45,0.45 0 0 1 0.45,-0.45zM1.5,18.05h0a0.45,0.45 0 0 1 0.45,0.45v0a0.45,0.45 0 0 1 -0.45,0.45h0a0.45,0.45 0 0 1 -0.45,-0.45v0a0.45,0.45 0 0 1 0.45,-0.45zM3.5,18.05h0a0.45,0.45 0 0 1 0.45,0.45v0a0.45,0.45 0 0 1 -0.45,0.45h0a0.45,0.45 0 0 1 -0.45,-0.45v0a0.45,0.45 0 0 1 0.45,-0.45zM4.5,18.05h0a0.45,0.45 0 0 1 0.45,0.45v0a0.45,0.45 0 0 1 -0.45,0.45h0a0.45,0.45 0 0 1 -0.45,-0.45v0a0.45,0.45 0 0 1 0.45,-0.45zM5.5,18.05h0a0.45,0.45 0 0 1 0.45,0.45v0a0.45,0.45 0 0 1 -0.45,0.45h0a0.45,0.45 0 0 1 -0.45,-0.45v0a0.45,0.45 0 0 1 0.45,-0.45zM6.5,18.05h0a0.45,0.45 0 0 1 0.45,0.45v0a0.45,0.45 0 0 1 -0.45,0.45h0a0.45,0.45 0 0 1 -0.45,-0.45v0a0.45,0.45 0 0 1 0.45,-0.45zM21.5,18.05h0a0.45,0.45 0 0 1 0.45,0.45v0a0.45,0.45 0 0 1 -0.45,0.45h0a0.45,0.45 0 0 1 -0.45,-0.45v0a0.45,0.45 0 0 1 0.45,-0.45zM22.5,18.05h0a0.45,0.45 0 0 1 0.45,0.45v0a0.45,0.45 0 0 1 -0.45,0.45h0a0.45,0.45 0 0 1 -0.45,-0.45v0a0.45,0.45 0 0 1 0.45,-0.45zM24.5,18.05h0a0.45,0.45 0 0 1 0.45,0.45v0a0.45,0.45 0 0 1 -0.45,0.45h0a0.45,0.45 0 0 1 -0.45,-0.45v0a0.45,0.45 0 0 1 0.45,-0.45zM25.5,18.05h0a0.45,0.45 0 0 1 0.45,0.45v0a0.45,0.45 0 0 1 -0.45,0.45h0a0.45,0.45 0 0 1 -0.45,-0.45v0a0.45,0.45 0 0 1 0.45,-0.45zM26.5,18.05h0a0.45,0.45 0 0 1 0.45,0.45v0a0.45,0.45 0 0 1 -0.45,0.45h0a0.45,0.45 0 0 1 -0.45,-0.45v0a0.45,0.45 0 0 1 0.45,-0.45zM28.5,18.05h0a0.45,0.45 0 0 1 0.45,0.45v0a0.45,0.45 0 0 1 -0.45,0.45h0a0.45,0.45 0 0 1 -0.45,-0.45v0a0.45,0.45 0 0 1 0.45,-0.45zM2.5,19.05h0a0.45,0.45 0 0 1 0.45,0.45v0a0.45,0.45 0 0 1 -0.45,0.45h0a0.45,0.45 0 0 1 -0.45,-0.45v0a0.45,0.45 0 0 1 0.45,-0.45zM4.5,19.05h0a0.45,0.45 0 0 1 0.45,0.45v0a0.45,0.45 0 0 1 -0.45,0.45h0a0.45,0.45 0 0 1 -0.45,-0.45v0a0.45,0.45 0 0 1 0.45,-0.45zM7.5,19.05h0a0.45,0.45 0 0 1 0.45,0.45v0a0.45,0.45 0 0 1 -0.45,0.45h0a0.45,0.45 0 0 1 -0.45,-0.45v0a0.45,0.45 0 0 1 0.45,-0.45zM8.5,19.05h0a0.45,0.45 0 0 1 0.45,0.45v0a0.45,0.45 0 0 1 -0.45,0.45h0a0.45,0.45 0 0 1 -0.45,-0.45v0a0.45,0.45 0 0 1 0.45,-0.45zM21.5,19.05h0a0.45,0.45 0 0 1 0.45,0.45v0a0.45,0.45 0 0 1 -0.45,0.45h0a0.45,0.45 0 0 1 -0.45,-0.45v0a0.45,0.45 0 0 1 0.45,-0.45zM22.5,19.05h0a0.45,0.45 0 0 1 0.45,0.45v0a0.45,0.45 0 0 1 -0.45,0.45h0a0.45,0.45 0 0 1 -0.45,-0.45v0a0.45,0.45 0 0 1 0.45,-0.45zM23.5,19.05h0a0.45,0.45 0 0 1 0.45,0.45v0a0.45,0.45 0 0 1 -0.45,0.45h0a0.45,0.45 0 0 1 -0.45,-0.45v0a0.45,0.45 0 0 1 0.45,-0.45zM25.5,19.05h0a0.45,0.45 0 0 1 0.45,0.45v0a0.45,0.45 0 0 1 -0.45,0.45h0a0.45,0.45 0 0 1 -0.45,-0.45v0a0.45,0.45 0 0 1 0.45,-0.45zM0.5,20.05h0a0.45,0.45 0 0 1 0.45,0.45v0a0.45,0.45 0 0 1 -0.45,0.45h0a0.45,0.45 0 0 1 -0.45,-0.45v0a0.45,0.45 0 0 1 0.45,-0.45zM1.5,20.05h0a0.45,0.45 0 0 1 0.45,0.45v0a0.45,0.45 0 0 1 -0.45,0.45h0a0.45,0.45 0 0 1 -0.45,-0.45v0a0.45,0.45 0 0 1 0.45,-0.45zM2.5,20.05h0a0.45,0.45 0 0 1 0.45,0.45v0a0.45,0.45 0 0 1 -0.45,0.45h0a0.45,0.45 0 0 1 -0.45,-0.45v0a0.45,0.45 0 0 1 0.45,-0.45zM3.5,20.05h0a0.45,0.45 0 0 1 0.45,0.45v0a0.45,0.45 0 0 1 -0.45,0.45h0a0.45,0.45 0 0 1 -0.45,-0.45v0a0.45,0.45 0 0 1 0.45,-0.45zM4.5,20.05h0a0.45,0.45 0 0 1 0.45,0.45v0a0.45,0.45 0 0 1 -0.45,0.45h0a0.45,0.45 0 0 1 -0.45,-0.45v0a0.45,0.45 0 0 1 0.45,-0.45zM5.5,20.05h0a0.45,0.45 0 0 1 0.45,0.45v0a0.45,0.45 0 0 1 -0.45,0.45h0a0.45,0.45 0 0 1 -0.45,-0.45v0a0.45,0.45 0 0 1 0.45,-0.45zM6.5,20.05h0a0.45,0.45 0 0 1 0.45,0.45v0a0.45,0.45 0 0 1 -0.45,0.45h0a0.45,0.45 0 0 1 -0.45,-0.45v0a0.45,0.45 0 0 1 0.45,-0.45zM8.5,20.05h0a0.45,0.45 0 0 1 0.45,0.45v0a0.45,0.45 0 0 1 -0.45,0.45h0a0.45,0.45 0 0 1 -0.45,-0.45v0a0.45,0.45 0 0 1 0.45,-0.45zM10.5,20.05h0a0.45,0.45 0 0 1 0.45,0.45v0a0.45,0.45 0 0 1 -0.45,0.45h0a0.45,0.45 0 0 1 -0.45,-0.45v0a0.45,0.45 0 0 1 0.45,-0.45zM11.5,20.05h0a0.45,0.45 0 0 1 0.45,0.45v0a0.45,0.45 0 0 1 -0.45,0.45h0a0.45,0.45 0 0 1 -0.45,-0.45v0a0.45,0.45 0 0 1 0.45,-0.45zM13.5,20.05h0a0.45,0.45 0 0 1 0.45,0.45v0a0.45,0.45 0 0 1 -0.45,0.45h0a0.45,0.45 0 0 1 -0.45,-0.45v0a0.45,0.45 0 0 1 0.45,-0.45zM16.5,20.05h0a0.45,0.45 0 0 1 0.45,0.45v0a0.45,0.45 0 0 1 -0.45,0.45h0a0.45,0.45 0 0 1 -0.45,-0.45v0a0.45,0.45 0 0 1 0.45,-0.45zM17.5,20.05h0a0.45,0.45 0 0 1 0.45,0.45v0a0.45,0.45 0 0 1 -0.45,0.45h0a0.45,0.45 0 0 1 -0.45,-0.45v0a0.45,0.45 0 0 1 0.45,-0.45zM19.5,20.05h0a0.45,0.45 0 0 1 0.45,0.45v0a0.45,0.45 0 0 1 -0.45,0.45h0a0.45,0.45 0 0 1 -0.45,-0.45v0a0.45,0.45 0 0 1 0.45,-0.45zM20.5,20.05h0a0.45,0.45 0 0 1 0.45,0.45v0a0.45,0.45 0 0 1 -0.45,0.45h0a0.45,0.45 0 0 1 -0.45,-0.45v0a0.45,0.45 0 0 1 0.45,-0.45zM21.5,20.05h0a0.45,0.45 0 0 1 0.45,0.45v0a0.45,0.45 0 0 1 -0.45,0.45h0a0.45,0.45 0 0 1 -0.45,-0.45v0a0.45,0.45 0 0 1 0.45,-0.45zM22.5,20.05h0a0.45,0.45 0 0 1 0.45,0.45v0a0.45,0.45 0 0 1 -0.45,0.45h0a0.45,0.45 0 0 1 -0.45,-0.45v0a0.45,0.45 0 0 1 0.45,-0.45zM23.5,20.05h0a0.45,0.45 0 0 1 0.45,0.45v0a0.45,0.45 0 0 1 -0.45,0.45h0a0.45,0.45 0 0 1 -0.45,-0.45v0a0.45,0.45 0 0 1 0.45,-0.45zM24.5,20.05h0a0.45,0.45 0 0 1 0.45,0.45v0a0.45,0.45 0 0 1 -0.45,0.45h0a0.45,0.45 0 0 1 -0.45,-0.45v0a0.45,0.45 0 0 1 0.45,-0.45zM25.5,20.05h0a0.45,0.45 0 0 1 0.45,0.45v0a0.45,0.45 0 0 1 -0.45,0.45h0a0.45,0.45 0 0 1 -0.45,-0.45v0a0.45,0.45 0 0 1 0.45,-0.45zM27.5,20.05h0a0.45,0.45 0 0 1 0.45,0.45v0a0.45,0.45 0 0 1 -0.45,0.45h0a0.45,0.45 0 0 1 -0.45,-0.45v0a0.45,0.45 0 0 1 0.45,-0.45zM8.5,21.05h0a0.45,0.45 0 0 1 0.45,0.45v0a0.45,0.45 0 0 1 -0.45,0.45h0a0.45,0.45 0 0 1 -0.45,-0.45v0a0.45,0.45 0 0 1 0.45,-0.45zM9.5,21.05h0a0.45,0.45 0 0 1 0.45,0.45v0a0.45,0.45 0 0 1 -0.45,0.45h0a0.45,0.45 0 0 1 -0.45,-0.45v0a0.45,0.45 0 0 1 0.45,-0.45zM10.5,21.05h0a0.45,0.45 0 0 1 0.45,0.45v0a0.45,0.45 0 0 1 -0.45,0.45h0a0.45,0.45 0 0 1 -0.45,-0.45v0a0.45,0.45 0 0 1 0.45,-0.45zM11.5,21.05h0a0.45,0.45 0 0 1 0.45,0.45v0a0.45,0.45 0 0 1 -0.45,0.45h0a0.45,0.45 0 0 1 -0.45,-0.45v0a0.45,0.45 0 0 1 0.45,-0.45zM15.5,21.05h0a0.45,0.45 0 0 1 0.45,0.45v0a0.45,0.45 0 0 1 -0.45,0.45h0a0.45,0.45 0 0 1 -0.45,-0.45v0a0.45,0.45 0 0 1 0.45,-0.45zM17.5,21.05h0a0.45,0.45 0 0 1 0.45,0.45v0a0.45,0.45 0 0 1 -0.45,0.45h0a0.45,0.45 0 0 1 -0.45,-0.45v0a0.45,0.45 0 0 1 0.45,-0.45zM20.5,21.05h0a0.45,0.45 0 0 1 0.45,0.45v0a0.45,0.45 0 0 1 -0.45,0.45h0a0.45,0.45 0 0 1 -0.45,-0.45v0a0.45,0.45 0 0 1 0.45,-0.45zM24.5,21.05h0a0.45,0.45 0 0 1 0.45,0.45v0a0.45,0.45 0 0 1 -0.45,0.45h0a0.45,0.45 0 0 1 -0.45,-0.45v0a0.45,0.45 0 0 1 0.45,-0.45zM26.5,21.05h0a0.45,0.45 0 0 1 0.45,0.45v0a0.45,0.45 0 0 1 -0.45,0.45h0a0.45,0.45 0 0 1 -0.45,-0.45v0a0.45,0.45 0 0 1 0.45,-0.45zM28.5,21.05h0a0.45,0.45 0 0 1 0.45,0.45v0a0.45,0.45 0 0 1 -0.45,0.45h0a0.45,0.45 0 0 1 -0.45,-0.45v0a0.45,0.45 0 0 1 0.45,-0.45zM8.5,22.05h0a0.45,0.45 0 0 1 0.45,0.45v0a0.45,0.45 0 0 1 -0.45,0.45h0a0.45,0.45 0 0 1 -0.45,-0.45v0a0.45,0.45 0 0 1 0.45,-0.45zM9.5,22.05h0a0.45,0.45 0 0 1 0.45,0.45v0a0.45,0.45 0 0 1 -0.45,0.45h0a0.45,0.45 0 0 1 -0.45,-0.45v0a0.45,0.45 0 0 1 0.45,-0.45zM11.5,22.05h0a0.45,0.45 0 0 1 0.45,0.45v0a0.45,0.45 0 0 1 -0.45,0.45h0a0.45,0.45 0 0 1 -0.45,-0.45v0a0.45,0.45 0 0 1 0.45,-0.45zM14.5,22.05h0a0.45,0.45 0 0 1 0.45,0.45v0a0.45,0.45 0 0 1 -0.45,0.45h0a0.45,0.45 0 0 1 -0.45,-0.45v0a0.45,0.45 0 0 1 0.45,-0.45zM15.5,22.05h0a0.45,0.45 0 0 1 0.45,0.45v0a0.45,0.45 0 0 1 -0.45,0.45h0a0.45,0.45 0 0 1 -0.45,-0.45v0a0.45,0.45 0 0 1 0.45,-0.45zM16.5,22.05h0a0.45,0.45 0 0 1 0.45,0.45v0a0.45,0.45 0 0 1 -0.45,0.45h0a0.45,0.45 0 0 1 -0.45,-0.45v0a0.45,0.45 0 0 1 0.45,-0.45zM17.5,22.05h0a0.45,0.45 0 0 1 0.45,0.45v0a0.45,0.45 0 0 1 -0.45,0.45h0a0.45,0.45 0 0 1 -0.45,-0.45v0a0.45,0.45 0 0 1 0.45,-0.45zM20.5,22.05h0a0.45,0.45 0 0 1 0.45,0.45v0a0.45,0.45 0 0 1 -0.45,0.45h0a0.45,0.45 0 0 1 -0.45,-0.45v0a0.45,0.45 0 0 1 0.45,-0.45zM22.5,22.05h0a0.45,0.45 0 0 1 0.45,0.45v0a0.45,0.45 0 0 1 -0.45,0.45h0a0.45,0.45 0 0 1 -0.45,-0.45v0a0.45,0.45 0 0 1 0.45,-0.45zM24.5,22.05h0a0.45,0.45 0 0 1 0.45,0.45v0a0.45,0.45 0 0 1 -0.45,0.45h0a0.45,0.45 0 0 1 -0.45,-0.45v0a0.45,0.45 0 0 1 0.45,-0.45zM26.5,22.05h0a0.45,0.45 0 0 1 0.45,0.45v0a0.45,0.45 0 0 1 -0.45,0.45h0a0.45,0.45 0 0 1 -0.45,-0.45v0a0.45,0.45 0 0 1 0.45,-0.45zM27.5,22.05h0a0.45,0.45 0 0 1 0.45,0.45v0a0.45,0.45 0 0 1 -0.45,0.45h0a0.45,0.45 0 0 1 -0.45,-0.45v0a0.45,0.45 0 0 1 0.45,-0.45zM28.5,22.05h0a0.45,0.45 0 0 1 0.45,0.45v0a0.45,0.45 0 0 1 -0.45,0.45h0a0.45,0.45 0 0 1 -0.45,-0.45v0a0.45,0.45 0 0 1 0.45,-0.45zM8.5,23.05h0a0.45,0.45 0 0 1 0.45,0.45v0a0.45,0.45 0 0 1 -0.45,0.45h0a0.45,0.45 0 0 1 -0.45,-0.45v0a0.45,0.45 0 0 1 0.45,-0.45zM11.5,23.05h0a0.45,0.45 0 0 1 0.45,0.45v0a0.45,0.45 0 0 1 -0.45,0.45h0a0.45,0.45 0 0 1 -0.45,-0.45v0a0.45,0.45 0 0 1 0.45,-0.45zM13.5,23.05h0a0.45,0.45 0 0 1 0.45,0.45v0a0.45,0.45 0 0 1 -0.45,0.45h0a0.45,0.45 0 0 1 -0.45,-0.45v0a0.45,0.45 0 0 1 0.45,-0.45zM14.5,23.05h0a0.45,0.45 0 0 1 0.45,0.45v0a0.45,0.45 0 0 1 -0.45,0.45h0a0.45,0.45 0 0 1 -0.45,-0.45v0a0.45,0.45 0 0 1 0.45,-0.45zM17.5,23.05h0a0.45,0.45 0 0 1 0.45,0.45v0a0.45,0.45 0 0 1 -0.45,0.45h0a0.45,0.45 0 0 1 -0.45,-0.45v0a0.45,0.45 0 0 1 0.45,-0.45zM18.5,23.05h0a0.45,0.45 0 0 1 0.45,0.45v0a0.45,0.45 0 0 1 -0.45,0.45h0a0.45,0.45 0 0 1 -0.45,-0.45v0a0.45,0.45 0 0 1 0.45,-0.45zM19.5,23.05h0a0.45,0.45 0 0 1 0.45,0.45v0a0.45,0.45 0 0 1 -0.45,0.45h0a0.45,0.45 0 0 1 -0.45,-0.45v0a0.45,0.45 0 0 1 0.45,-0.45zM20.5,23.05h0a0.45,0.45 0 0 1 0.45,0.45v0a0.45,0.45 0 0 1 -0.45,0.45h0a0.45,0.45 0 0 1 -0.45,-0.45v0a0.45,0.45 0 0 1 0.45,-0.45zM24.5,23.05h0a0.45,0.45 0 0 1 0.45,0.45v0a0.45,0.45 0 0 1 -0.45,0.45h0a0.45,0.45 0 0 1 -0.45,-0.45v0a0.45,0.45 0 0 1 0.45,-0.45zM25.5,23.05h0a0.45,0.45 0 0 1 0.45,0.45v0a0.45,0.45 0 0 1 -0.45,0.45h0a0.45,0.45 0 0 1 -0.45,-0.45v0a0.45,0.45 0 0 1 0.45,-0.45zM12.5,24.05h0a0.45,0.45 0 0 1 0.45,0.45v0a0.45,0.45 0 0 1 -0.45,0.45h0a0.45,0.45 0 0 1 -0.45,-0.45v0a0.45,0.45 0 0 1 0.45,-0.45zM15.5,24.05h0a0.45,0.45 0 0 1 0.45,0.45v0a0.45,0.45 0 0 1 -0.45,0.45h0a0.45,0.45 0 0 1 -0.45,-0.45v0a0.45,0.45 0 0 1 0.45,-0.45zM19.5,24.05h0a0.45,0.45 0 0 1 0.45,0.45v0a0.45,0.45 0 0 1 -0.45,0.45h0a0.45,0.45 0 0 1 -0.45,-0.45v0a0.45,0.45 0 0 1 0.45,-0.45zM20.5,24.05h0a0.45,0.45 0 0 1 0.45,0.45v0a0.45,0.45 0 0 1 -0.45,0.45h0a0.45,0.45 0 0 1 -0.45,-0.45v0a0.45,0.45 0 0 1 0.45,-0.45zM21.5,24.05h0a0.45,0.45 0 0 1 0.45,0.45v0a0.45,0.45 0 0 1 -0.45,0.45h0a0.45,0.45 0 0 1 -0.45,-0.45v0a0.45,0.45 0 0 1 0.45,-0.45zM22.5,24.05h0a0.45,0.45 0 0 1 0.45,0.45v0a0.45,0.45 0 0 1 -0.45,0.45h0a0.45,0.45 0 0 1 -0.45,-0.45v0a0.45,0.45 0 0 1 0.45,-0.45zM23.5,24.05h0a0.45,0.45 0 0 1 0.45,0.45v0a0.45,0.45 0 0 1 -0.45,0.45h0a0.45,0.45 0 0 1 -0.45,-0.45v0a0.45,0.45 0 0 1 0.45,-0.45zM24.5,24.05h0a0.45,0.45 0 0 1 0.45,0.45v0a0.45,0.45 0 0 1 -0.45,0.45h0a0.45,0.45 0 0 1 -0.45,-0.45v0a0.45,0.45 0 0 1 0.45,-0.45zM28.5,24.05h0a0.45,0.45 0 0 1 0.45,0.45v0a0.45,0.45 0 0 1 -0.45,0.45h0a0.45,0.45 0 0 1 -0.45,-0.45v0a0.45,0.45 0 0 1 0.45,-0.45zM9.5,25.05h0a0.45,0.45 0 0 1 0.45,0.45v0a0.45,0.45 0 0 1 -0.45,0.45h0a0.45,0.45 0 0 1 -0.45,-0.45v0a0.45,0.45 0 0 1 0.45,-0.45zM11.5,25.05h0a0.45,0.45 0 0 1 0.45,0.45v0a0.45,0.45 0 0 1 -0.45,0.45h0a0.45,0.45 0 0 1 -0.45,-0.45v0a0.45,0.45 0 0 1 0.45,-0.45zM14.5,25.05h0a0.45,0.45 0 0 1 0.45,0.45v0a0.45,0.45 0 0 1 -0.45,0.45h0a0.45,0.45 0 0 1 -0.45,-0.45v0a0.45,0.45 0 0 1 0.45,-0.45zM16.5,25.05h0a0.45,0.45 0 0 1 0.45,0.45v0a0.45,0.45 0 0 1 -0.45,0.45h0a0.45,0.45 0 0 1 -0.45,-0.45v0a0.45,0.45 0 0 1 0.45,-0.45zM24.5,25.05h0a0.45,0.45 0 0 1 0.45,0.45v0a0.45,0.45 0 0 1 -0.45,0.45h0a0.45,0.45 0 0 1 -0.45,-0.45v0a0.45,0.45 0 0 1 0.45,-0.45zM25.5,25.05h0a0.45,0.45 0 0 1 0.45,0.45v0a0.45,0.45 0 0 1 -0.45,0.45h0a0.45,0.45 0 0 1 -0.45,-0.45v0a0.45,0.45 0 0 1 0.45,-0.45zM27.5,25.05h0a0.45,0.45 0 0 1 0.45,0.45v0a0.45,0.45 0 0 1 -0.45,0.45h0a0.45,0.45 0 0 1 -0.45,-0.45v0a0.45,0.45 0 0 1 0.45,-0.45zM8.5,26.05h0a0.45,0.45 0 0 1 0.45,0.45v0a0.45,0.45 0 0 1 -0.45,0.45h0a0.45,0.45 0 0 1 -0.45,-0.45v0a0.45,0.45 0 0 1 0.45,-0.45zM9.5,26.05h0a0.45,0.45 0 0 1 0.45,0.45v0a0.45,0.45 0 0 1 -0.45,0.45h0a0.45,0.45 0 0 1 -0.45,-0.45v0a0.45,0.45 0 0 1 0.45,-0.45zM10.5,26.05h0a0.45,0.45 0 0 1 0.45,0.45v0a0.45,0.45 0 0 1 -0.45,0.45h0a0.45,0.45 0 0 1 -0.45,-0.45v0a0.45,0.45 0 0 1 0.45,-0.45zM16.5,26.05h0a0.45,0.45 0 0 1 0.45,0.45v0a0.45,0.45 0 0 1 -0.45,0.45h0a0.45,0.45 0 0 1 -0.45,-0.45v0a0.45,0.45 0 0 1 0.45,-0.45zM17.5,26.05h0a0.45,0.45 0 0 1 0.45,0.45v0a0.45,0.45 0 0 1 -0.45,0.45h0a0.45,0.45 0 0 1 -0.45,-0.45v0a0.45,0.45 0 0 1 0.45,-0.45zM18.5,26.05h0a0.45,0.45 0 0 1 0.45,0.45v0a0.45,0.45 0 0 1 -0.45,0.45h0a0.45,0.45 0 0 1 -0.45,-0.45v0a0.45,0.45 0 0 1 0.45,-0.45zM19.5,26.05h0a0.45,0.45 0 0 1 0.45,0.45v0a0.45,0.45 0 0 1 -0.45,0.45h0a0.45,0.45 0 0 1 -0.45,-0.45v0a0.45,0.45 0 0 1 0.45,-0.45zM20.5,26.05h0a0.45,0.45 0 0 1 0.45,0.45v0a0.45,0.45 0 0 1 -0.45,0.45h0a0.45,0.45 0 0 1 -0.45,-0.45v0a0.45,0.45 0 0 1 0.45,-0.45zM21.5,26.05h0a0.45,0.45 0 0 1 0.45,0.45v0a0.45,0.45 0 0 1 -0.45,0.45h0a0.45,0.45 0 0 1 -0.45,-0.45v0a0.45,0.45 0 0 1 0.45,-0.45zM23.5,26.05h0a0.45,0.45 0 0 1 0.45,0.45v0a0.45,0.45 0 0 1 -0.45,0.45h0a0.45,0.45 0 0 1 -0.45,-0.45v0a0.45,0.45 0 0 1 0.45,-0.45zM24.5,26.05h0a0.45,0.45 0 0 1 0.45,0.45v0a0.45,0.45 0 0 1 -0.45,0.45h0a0.45,0.45 0 0 1 -0.45,-0.45v0a0.45,0.45 0 0 1 0.45,-0.45zM25.5,26.05h0a0.45,0.45 0 0 1 0.45,0.45v0a0.45,0.45 0 0 1 -0.45,0.45h0a0.45,0.45 0 0 1 -0.45,-0.45v0a0.45,0.45 0 0 1 0.45,-0.45zM26.5,26.05h0a0.45,0.45 0 0 1 0.45,0.45v0a0.45,0.45 0 0 1 -0.45,0.45h0a0.45,0.45 0 0 1 -0.45,-0.45v0a0.45,0.45 0 0 1 0.45,-0.45zM27.5,26.05h0a0.45,0.45 0 0 1 0.45,0.45v0a0.45,0.45 0 0 1 -0.45,0.45h0a0.45,0.45 0 0 1 -0.45,-0.45v0a0.45,0.45 0 0 1 0.45,-0.45zM28.5,26.05h0a0.45,0.45 0 0 1 0.45,0.45v0a0.45,0.45 0 0 1 -0.45,0.45h0a0.45,0.45 0 0 1 -0.45,-0.45v0a0.45,0.45 0 0 1 0.45,-0.45zM10.5,27.05h0a0.45,0.45 0 0 1 0.45,0.45v0a0.45,0.45 0 0 1 -0.45,0.45h0a0.45,0.45 0 0 1 -0.45,-0.45v0a0.45,0.45 0 0 1 0.45,-0.45zM11.5,27.05h0a0.45,0.45 0 0 1 0.45,0.45v0a0.45,0.45 0 0 1 -0.45,0.45h0a0.45,0.45 0 0 1 -0.45,-0.45v0a0.45,0.45 0 0 1 0.45,-0.45zM12.5,27.05h0a0.45,0.45 0 0 1 0.45,0.45v0a0.45,0.45 0 0 1 -0.45,0.45h0a0.45,0.45 0 0 1 -0.45,-0.45v0a0.45,0.45 0 0 1 0.45,-0.45zM13.5,27.05h0a0.45,0.45 0 0 1 0.45,0.45v0a0.45,0.45 0 0 1 -0.45,0.45h0a0.45,0.45 0 0 1 -0.45,-0.45v0a0.45,0.45 0 0 1 0.45,-0.45zM14.5,27.05h0a0.45,0.45 0 0 1 0.45,0.45v0a0.45,0.45 0 0 1 -0.45,0.45h0a0.45,0.45 0 0 1 -0.45,-0.45v0a0.45,0.45 0 0 1 0.45,-0.45zM15.5,27.05h0a0.45,0.45 0 0 1 0.45,0.45v0a0.45,0.45 0 0 1 -0.45,0.45h0a0.45,0.45 0 0 1 -0.45,-0.45v0a0.45,0.45 0 0 1 0.45,-0.45zM18.5,27.05h0a0.45,0.45 0 0 1 0.45,0.45v0a0.45,0.45 0 0 1 -0.45,0.45h0a0.45,0.45 0 0 1 -0.45,-0.45v0a0.45,0.45 0 0 1 0.45,-0.45zM20.5,27.05h0a0.45,0.45 0 0 1 0.45,0.45v0a0.45,0.45 0 0 1 -0.45,0.45h0a0.45,0.45 0 0 1 -0.45,-0.45v0a0.45,0.45 0 0 1 0.45,-0.45zM23.5,27.05h0a0.45,0.45 0 0 1 0.45,0.45v0a0.45,0.45 0 0 1 -0.45,0.45h0a0.45,0.45 0 0 1 -0.45,-0.45v0a0.45,0.45 0 0 1 0.45,-0.45zM24.5,27.05h0a0.45,0.45 0 0 1 0.45,0.45v0a0.45,0.45 0 0 1 -0.45,0.45h0a0.45,0.45 0 0 1 -0.45,-0.45v0a0.45,0.45 0 0 1 0.45,-0.45zM25.5,27.05h0a0.45,0.45 0 0 1 0.45,0.45v0a0.45,0.45 0 0 1 -0.45,0.45h0a0.45,0.45 0 0 1 -0.45,-0.45v0a0.45,0.45 0 0 1 0.45,-0.45zM9.5,28.05h0a0.45,0.45 0 0 1 0.45,0.45v0a0.45,0.45 0 0 1 -0.45,0.45h0a0.45,0.45 0 0 1 -0.45,-0.45v0a0.45,0.45 0 0 1 0.45,-0.45zM10.5,28.05h0a0.45,0.45 0 0 1 0.45,0.45v0a0.45,0.45 0 0 1 -0.45,0.45h0a0.45,0.45 0 0 1 -0.45,-0.45v0a0.45,0.45 0 0 1 0.45,-0.45zM11.5,28.05h0a0.45,0.45 0 0 1 0.45,0.45v0a0.45,0.45 0 0 1 -0.45,0.45h0a0.45,0.45 0 0 1 -0.45,-0.45v0a0.45,0.45 0 0 1 0.45,-0.45zM13.5,28.05h0a0.45,0.45 0 0 1 0.45,0.45v0a0.45,0.45 0 0 1 -0.45,0.45h0a0.45,0.45 0 0 1 -0.45,-0.45v0a0.45,0.45 0 0 1 0.45,-0.45zM14.5,28.05h0a0.45,0.45 0 0 1 0.45,0.45v0a0.45,0.45 0 0 1 -0.45,0.45h0a0.45,0.45 0 0 1 -0.45,-0.45v0a0.45,0.45 0 0 1 0.45,-0.45zM18.5,28.05h0a0.45,0.45 0 0 1 0.45,0.45v0a0.45,0.45 0 0 1 -0.45,0.45h0a0.45,0.45 0 0 1 -0.45,-0.45v0a0.45,0.45 0 0 1 0.45,-0.45zM20.5,28.05h0a0.45,0.45 0 0 1 0.45,0.45v0a0.45,0.45 0 0 1 -0.45,0.45h0a0.45,0.45 0 0 1 -0.45,-0.45v0a0.45,0.45 0 0 1 0.45,-0.45zM21.5,28.05h0a0.45,0.45 0 0 1 0.45,0.45v0a0.45,0.45 0 0 1 -0.45,0.45h0a0.45,0.45 0 0 1 -0.45,-0.45v0a0.45,0.45 0 0 1 0.45,-0.45zM22.5,28.05h0a0.45,0.45 0 0 1 0.45,0.45v0a0.45,0.45 0 0 1 -0.45,0.45h0a0.45,0.45 0 0 1 -0.45,-0.45v0a0.45,0.45 0 0 1 0.45,-0.45zM23.5,28.05h0a0.45,0.45 0 0 1 0.45,0.45v0a0.45,0.45 0 0 1 -0.45,0.45h0a0.45,0.45 0 0 1 -0.45,-0.45v0a0.45,0.45 0 0 1 0.45,-0.45zM24.5,28.05h0a0.45,0.45 0 0 1 0.45,0.45v0a0.45,0.45 0 0 1 -0.45,0.45h0a0.45,0.45 0 0 1 -0.45,-0.45v0a0.45,0.45 0 0 1 0.45,-0.45zM25.5,28.05h0a0.45,0.45 0 0 1 0.45,0.45v0a0.45,0.45 0 0 1 -0.45,0.45h0a0.45,0.45 0 0 1 -0.45,-0.45v0a0.45,0.45 0 0 1 0.45,-0.45zM28.5,28.05h0a0.45,0.45 0 0 1 0.45,0.45v0a0.45,0.45 0 0 1 -0.45,0.45h0a0.45,0.45 0 0 1 -0.45,-0.45v0a0.45,0.45 0 0 1 0.45,-0.45z"></path>
    <path id="qr squares" d="M1.75,0h3.5a1.75,1.75 0 0 1 1.75,1.75v3.5a1.75,1.75 0 0 1 -1.75,1.75h-3.5a1.75,1.75 0 0 1 -1.75,-1.75v-3.5a1.75,1.75 0 0 1 1.75,-1.75zM2.25,1h2.5a1.25,1.25 0 0 1 1.25,1.25v2.5a1.25,1.25 0 0 1 -1.25,1.25h-2.5a1.25,1.25 0 0 1 -1.25,-1.25v-2.5a1.25,1.25 0 0 1 1.25,-1.25zM2.75,2h1.5a0.75,0.75 0 0 1 0.75,0.75v1.5a0.75,0.75 0 0 1 -0.75,0.75h-1.5a0.75,0.75 0 0 1 -0.75,-0.75v-1.5a0.75,0.75 0 0 1 0.75,-0.75z M23.75,0h3.5a1.75,1.75 0 0 1 1.75,1.75v3.5a1.75,1.75 0 0 1 -1.75,1.75h-3.5a1.75,1.75 0 0 1 -1.75,-1.75v-3.5a1.75,1.75 0 0 1 1.75,-1.75zM24.25,1h2.5a1.25,1.25 0 0 1 1.25,1.25v2.5a1.25,1.25 0 0 1 -1.25,1.25h-2.5a1.25,1.25 0 0 1 -1.25,-1.25v-2.5a1.25,1.25 0 0 1 1.25,-1.25zM24.75,2h1.5a0.75,0.75 0 0 1 0.75,0.75v1.5a0.75,0.75 0 0 1 -0.75,0.75h-1.5a0.75,0.75 0 0 1 -0.75,-0.75v-1.5a0.75,0.75 0 0 1 0.75,-0.75z M1.75,22h3.5a1.75,1.75 0 0 1 1.75,1.75v3.5a1.75,1.75 0 0 1 -1.75,1.75h-3.5a1.75,1.75 0 0 1 -1.75,-1.75v-3.5a1.75,1.75 0 0 1 1.75,-1.75zM2.25,23h2.5a1.25,1.25 0 0 1 1.25,1.25v2.5a1.25,1.25 0 0 1 -1.25,1.25h-2.5a1.25,1.25 0 0 1 -1.25,-1.25v-2.5a1.25,1.25 0 0 1 1.25,-1.25zM2.75,24h1.5a0.75,0.75 0 0 1 0.75,0.75v1.5a0.75,0.75 0 0 1 -0.75,0.75h-1.5a0.75,0.75 0 0 1 -0.75,-0.75v-1.5a0.75,0.75 0 0 1 0.75,-0.75z" fill-rule="evenodd" fill-opacity="1" fill="rgb(255, 113, 113)"></path>
    <image x="10" y="10" xlink:href="data:image/svg+xml;utf8,%3C%3Fxml%20version%3D%221.0%22%20encoding%3D%22utf-8%22%20standalone%3D%22yes%22%3F%3E%20%3Csvg%20class%3D%22MuiSvgIcon-root%20MuiSvgIcon-fontSizeMedium%20css-vubbuv%22%20focusable%3D%22false%22%20aria-hidden%3D%22true%22%20viewBox%3D%220%200%2024%2024%22%20data-testid%3D%22ShoppingCartIcon%22%20fill%3D%22%23ff7171%22%20width%3D%2224%22%20height%3D%2224%22%20xmlns%3D%22http%3A%2F%2Fwww.w3.org%2F2000%2Fsvg%22%20xmlns%3Axlink%3D%22http%3A%2F%2Fwww.w3.org%2F1999%2Fxlink%22%3E%3Cpath%20d%3D%22M7%2018c-1.1%200-1.99.9-1.99%202S5.9%2022%207%2022s2-.9%202-2-.9-2-2-2M1%202v2h2l3.6%207.59-1.35%202.45c-.16.28-.25.61-.25.96%200%201.1.9%202%202%202h12v-2H7.42c-.14%200-.25-.11-.25-.25l.03-.12.9-1.63h7.45c.75%200%201.41-.41%201.75-1.03l3.58-6.49c.08-.14.12-.31.12-.48%200-.55-.45-1-1-1H5.21l-.94-2zm16%2016c-1.1%200-1.99.9-1.99%202s.89%202%201.99%202%202-.9%202-2-.9-2-2-2%22%3E%3C%2Fpath%3E%3C%2Fsvg%3E" width="9" height="9" id="qr logo"></image>
</svg>